<?xml version="1.0" encoding="utf-8"?>
<!-- Generator: Adobe Illustrator 24.1.2, SVG Export Plug-In . SVG Version: 6.00 Build 0)  -->
<svg version="1.1" id="Layer_1" xmlns="http://www.w3.org/2000/svg" xmlns:xlink="http://www.w3.org/1999/xlink" x="0px" y="0px"
	 viewBox="0 0 1474.11 39.19" style="enable-background:new 0 0 1474.11 39.19;" xml:space="preserve">
<style type="text/css">
	.st0{fill-rule:evenodd;clip-rule:evenodd;fill:url(#SVGID_1_);}
	.st1{fill-rule:evenodd;clip-rule:evenodd;}
	.st2{fill:#262626;}
	.st3{fill:#808080;}
	.st4{fill:#646568;}
	.st5{fill:#C4203A;}
	.st6{fill:#757C80;}
	.st7{fill-rule:evenodd;clip-rule:evenodd;fill:#0C0E1A;}
	.st8{fill-rule:evenodd;clip-rule:evenodd;fill:#4E4F5F;}
	.st9{fill:#333333;}
</style>
<linearGradient id="SVGID_1_" gradientUnits="userSpaceOnUse" x1="1419.8303" y1="6.1692" x2="1419.8303" y2="30.9627">
	<stop  offset="0" style="stop-color:#F47422"/>
	<stop  offset="0.1291" style="stop-color:#F26024"/>
	<stop  offset="0.3368" style="stop-color:#F14525"/>
	<stop  offset="0.5493" style="stop-color:#EF3227"/>
	<stop  offset="0.7675" style="stop-color:#EE2728"/>
	<stop  offset="1" style="stop-color:#EE2328"/>
</linearGradient>
<path class="st0" d="M1404.03,8.64h4.46l-0.85,2.64h-3.61v14.79h-3.29V11.28h-2.33V8.64h2.33c0-1.06,0-2.1,0-3.16
	c0-2.11,0.85-3.62,2.12-4.53c1.72-1.24,4.51-1.17,6.27-0.3l-0.69,2.63c-1.97-0.75-4.42-0.76-4.42,2.46
	C1404.03,6.7,1404.03,7.67,1404.03,8.64L1404.03,8.64z M1434.02,8.26c4.77,0,7.22,3.65,7.24,8.6c0,0.62-0.01,0.54-0.01,1.16
	c-3.71,0-7.47,0-11.18,0c0.18,1.69,0.54,3.06,1.6,4.09c1.81,1.75,4.57,2.14,8.22,0.33l0.98,2.27c-2.72,1.81-7.84,2.37-10.83,0.06
	c-1.98-1.42-3.25-4.18-3.25-7.51C1426.79,11.65,1429.92,8.26,1434.02,8.26L1434.02,8.26z M1434.06,10.84c2.51,0,3.85,2.42,3.85,4.75
	l-7.81,0.02C1430.1,12.91,1431.84,10.84,1434.06,10.84L1434.06,10.84z M1417.49,8.68h2.77l0.34,2.15c2.24-2.58,4.92-3.14,6.96-2.07
	l-1.12,2.9c-2.03-1.12-3.82-0.09-5.69,1.8v12.61h-3.26V8.68L1417.49,8.68z M1411.31,8.68h3.26v17.39h-3.26V8.68L1411.31,8.68z
	 M1412.94,0.93c1.18,0,2.13,0.95,2.13,2.12c0,1.17-0.95,2.12-2.13,2.12s-2.13-0.95-2.13-2.12
	C1410.81,1.88,1411.76,0.93,1412.94,0.93L1412.94,0.93z"/>
<path class="st1" d="M1353.18,32.44c-5.97,4.4-14.62,6.75-22.07,6.75c-10.44,0-19.84-3.86-26.96-10.28c-0.56-0.5-0.06-1.19,0.61-0.8
	c7.68,4.47,17.17,7.16,26.97,7.16c6.61,0,13.88-1.37,20.57-4.21C1353.32,30.62,1354.17,31.71,1353.18,32.44L1353.18,32.44z"/>
<path class="st1" d="M1355.67,29.61c-0.76-0.98-5.05-0.46-6.97-0.23c-0.58,0.07-0.67-0.44-0.15-0.81c3.42-2.4,9.01-1.71,9.66-0.9
	c0.66,0.81-0.17,6.42-3.37,9.1c-0.49,0.41-0.96,0.19-0.74-0.35C1354.82,34.61,1356.43,30.58,1355.67,29.61L1355.67,29.61z"/>
<path class="st1" d="M1348.83,11.62V9.29c0-0.35,0.27-0.59,0.59-0.59l10.45,0c0.33,0,0.6,0.24,0.6,0.59v2
	c0,0.34-0.29,0.77-0.79,1.47l-5.41,7.73c2.01-0.05,4.13,0.25,5.96,1.28c0.41,0.23,0.52,0.57,0.55,0.91v2.49
	c0,0.34-0.38,0.74-0.77,0.53c-3.22-1.68-7.48-1.87-11.04,0.02c-0.36,0.19-0.74-0.2-0.74-0.54V22.8c0-0.38,0.01-1.03,0.39-1.6l6.27-9
	l-5.46,0C1349.1,12.2,1348.83,11.97,1348.83,11.62L1348.83,11.62z"/>
<path class="st1" d="M1310.72,26.18h-3.18c-0.3-0.02-0.54-0.25-0.57-0.54l0-16.31c0-0.33,0.27-0.59,0.61-0.59l2.96,0
	c0.31,0.02,0.56,0.25,0.58,0.55v2.13h0.06c0.77-2.06,2.23-3.02,4.18-3.02c1.99,0,3.23,0.96,4.12,3.02c0.77-2.06,2.52-3.02,4.39-3.02
	c1.34,0,2.79,0.55,3.68,1.79c1.01,1.37,0.8,3.36,0.8,5.12l0,10.3c0,0.33-0.27,0.59-0.61,0.59h-3.17c-0.32-0.02-0.57-0.27-0.57-0.59
	l0-8.65c0-0.69,0.06-2.4-0.09-3.05c-0.24-1.1-0.95-1.41-1.87-1.41c-0.77,0-1.57,0.52-1.9,1.34c-0.33,0.82-0.3,2.2-0.3,3.12v8.65
	c0,0.33-0.27,0.59-0.61,0.59h-3.18c-0.32-0.02-0.57-0.27-0.57-0.59l0-8.65c0-1.82,0.3-4.5-1.96-4.5c-2.29,0-2.2,2.61-2.2,4.5l0,8.65
	C1311.33,25.92,1311.06,26.18,1310.72,26.18L1310.72,26.18z"/>
<path class="st1" d="M1369.5,11.72c-2.34,0-2.49,3.19-2.49,5.18c0,1.99-0.03,6.25,2.46,6.25c2.46,0,2.58-3.43,2.58-5.53
	c0-1.37-0.06-3.02-0.48-4.33C1371.22,12.17,1370.51,11.72,1369.5,11.72L1369.5,11.72z M1369.47,8.39c4.72,0,7.27,4.05,7.27,9.2
	c0,4.98-2.82,8.93-7.27,8.93c-4.63,0-7.15-4.05-7.15-9.1C1362.32,12.34,1364.87,8.39,1369.47,8.39L1369.47,8.39z"/>
<path class="st1" d="M1382.86,26.18h-3.17c-0.32-0.02-0.57-0.27-0.57-0.59l-0.01-16.32c0.03-0.3,0.29-0.53,0.61-0.53l2.95,0
	c0.28,0.01,0.51,0.2,0.57,0.46v2.5h0.06c0.89-2.23,2.14-3.3,4.33-3.3c1.42,0,2.82,0.51,3.71,1.92c0.83,1.3,0.83,3.5,0.83,5.08v10.27
	c-0.04,0.29-0.29,0.51-0.61,0.51h-3.19c-0.29-0.02-0.53-0.24-0.57-0.51v-8.86c0-1.79,0.21-4.4-1.99-4.4c-0.77,0-1.48,0.52-1.84,1.3
	c-0.45,1-0.51,1.99-0.51,3.09v8.78C1383.47,25.92,1383.2,26.18,1382.86,26.18L1382.86,26.18z"/>
<path class="st1" d="M1343.71,26.14c-0.21,0.19-0.51,0.2-0.75,0.07c-1.06-0.88-1.24-1.28-1.82-2.12c-1.74,1.78-2.98,2.31-5.24,2.31
	c-2.68,0-4.76-1.65-4.76-4.95c0-2.58,1.4-4.33,3.39-5.2c1.72-0.76,4.13-0.89,5.98-1.1v-0.41c0-0.76,0.06-1.65-0.39-2.3
	c-0.39-0.59-1.13-0.83-1.78-0.83c-1.21,0-2.29,0.62-2.55,1.91c-0.05,0.29-0.26,0.57-0.55,0.59l-3.08-0.33
	c-0.26-0.06-0.55-0.27-0.47-0.66c0.71-3.74,4.08-4.87,7.11-4.87c1.55,0,3.57,0.41,4.79,1.58c1.55,1.44,1.4,3.37,1.4,5.47v4.95
	c0,1.49,0.62,2.14,1.2,2.95c0.2,0.29,0.25,0.63-0.01,0.84C1345.5,24.58,1344.35,25.58,1343.71,26.14L1343.71,26.14L1343.71,26.14z
	 M1340.5,18.39c0,1.24,0.03,2.27-0.6,3.37c-0.5,0.89-1.31,1.44-2.2,1.44c-1.22,0-1.93-0.93-1.93-2.31c0-2.71,2.43-3.2,4.73-3.2
	V18.39L1340.5,18.39z"/>
<path class="st1" d="M1302.04,26.14c-0.21,0.19-0.51,0.2-0.75,0.07c-1.06-0.88-1.25-1.28-1.82-2.12c-1.75,1.78-2.98,2.31-5.24,2.31
	c-2.68,0-4.76-1.65-4.76-4.95c0-2.58,1.4-4.33,3.39-5.2c1.72-0.76,4.13-0.89,5.98-1.1v-0.41c0-0.76,0.06-1.65-0.39-2.3
	c-0.39-0.59-1.13-0.83-1.78-0.83c-1.21,0-2.29,0.62-2.56,1.91c-0.05,0.29-0.26,0.57-0.55,0.59l-3.08-0.33
	c-0.26-0.06-0.55-0.27-0.47-0.66c0.71-3.74,4.08-4.87,7.11-4.87c1.55,0,3.57,0.41,4.79,1.58c1.55,1.44,1.4,3.37,1.4,5.47v4.95
	c0,1.49,0.62,2.14,1.2,2.95c0.2,0.29,0.25,0.63-0.01,0.84C1303.83,24.58,1302.68,25.58,1302.04,26.14L1302.04,26.14L1302.04,26.14z
	 M1298.83,18.39c0,1.24,0.03,2.27-0.59,3.37c-0.51,0.89-1.31,1.44-2.2,1.44c-1.22,0-1.93-0.93-1.93-2.31c0-2.71,2.43-3.2,4.73-3.2
	V18.39L1298.83,18.39z"/>
<path class="st1" d="M1467.15,25.94l6.96-17.24h-3.42l-3.04,7.92c-0.64,1.65-1.26,3.24-1.79,4.89c-0.54-1.63-1.15-3.25-1.78-4.89
	l-3.05-7.92h-3.43l6.98,17.24H1467.15L1467.15,25.94z"/>
<polygon class="st1" points="1456.8,11.3 1452.19,11.3 1452.19,25.94 1449.02,25.94 1449.02,11.3 1444,11.3 1444,8.71 1457.63,8.71 
	1456.8,11.3 "/>
<g id="XMLID_1_">
	<path class="st2" d="M533.73,31.99h-2.76V11.81h2.76V31.99z M533.73,6.77h-2.76v2.98h2.76V6.77z M449.19,11.81v7.31v5.62v7.25
		h-2.76V29.4c-1.89,1.86-4.48,3.02-7.34,3.02c-5.79,0-10.49-4.7-10.49-10.49c0-5.79,4.7-10.49,10.49-10.49
		c2.86,0,5.45,1.15,7.34,3.02v-2.64H449.19z M446.43,25.1v-6.35c-1.24-2.61-3.95-4.42-7.1-4.42c-4.32,0-7.83,3.4-7.83,7.59
		c0,4.19,3.5,7.59,7.83,7.59C442.48,29.52,445.19,27.71,446.43,25.1z M494.57,6.78v25.21h-2.76V29.7c-1.86,1.69-4.32,2.72-7.03,2.72
		c-5.79,0-10.49-4.7-10.49-10.49c0-5.79,4.7-10.49,10.49-10.49c2.71,0,5.17,1.03,7.03,2.71V6.78H494.57z M491.81,25.6v-7.35
		c-1.33-2.34-3.9-3.92-6.85-3.92c-4.32,0-7.83,3.4-7.83,7.59c0,4.19,3.5,7.59,7.83,7.59C487.91,29.52,490.48,27.94,491.81,25.6z
		 M556.93,6.78v25.21h-2.76v-2.23c-1.85,1.65-4.28,2.66-6.96,2.66c-5.79,0-10.49-4.7-10.49-10.49c0-5.79,4.7-10.49,10.49-10.49
		c2.68,0,5.11,1,6.96,2.65V6.78H556.93z M554.18,25.7v-7.55c-1.35-2.28-3.88-3.82-6.78-3.82c-4.32,0-7.83,3.4-7.83,7.59
		c0,4.19,3.51,7.59,7.83,7.59C550.29,29.52,552.82,27.98,554.18,25.7z M471.18,19.97c-0.39-4.78-4.39-8.53-9.27-8.53
		c-4.88,0-8.87,3.76-9.27,8.53h-0.04v12.02h2.76v-4.63v-6.72h0.03c0.06-3.55,2.95-6.42,6.52-6.42c3.57,0,6.46,2.86,6.52,6.42h0.03
		v6.72v4.63h2.76V19.97H471.18z M517.37,11.44c-5.79,0-10.49,4.7-10.49,10.49c0,5.79,4.7,10.49,10.49,10.49
		c5.79,0,10.49-4.7,10.49-10.49C527.86,16.13,523.17,11.44,517.37,11.44z M524.97,21.93c0,4.19-3.4,7.59-7.59,7.59
		c-4.19,0-7.59-3.4-7.59-7.59c0-4.19,3.4-7.59,7.59-7.59C521.57,14.33,524.97,17.73,524.97,21.93z M498.06,19.79h-0.05v12.19h2.76
		V20.64h0.03c0.06-3.43,2.76-6.21,6.16-6.4v-2.78C502.31,11.63,498.53,15.22,498.06,19.79z"/>
	<path class="st3" d="M582.25,31.99h-0.84l-9.22-20.18h1.6l8.03,17.59l8.03-17.59h1.6L582.25,31.99z M573.74,11.79l9.32,20.16
		 M563.97,13.41h6.42v-1.6h-6.42V6.78h-1.6v17.53c-0.01,0.15,0,0.83,0,0.83l0.05,0.57c0.47,3.52,3.47,6.25,7.11,6.27v0h0.86v-1.6
		h-0.69c0,0-0.34-0.02-0.39-0.03c-0.91-0.04-1.76-0.3-2.5-0.72c-1.7-0.96-2.84-2.79-2.84-4.88c0-0.02,0-0.04,0-0.06l0,0v-4.5V13.41z
		"/>
</g>
<g>
	<path class="st4" d="M16.63,32.09v-5.21H9.86c0,0-5.46-2.07-5.15-6.91c0,0,0.25-5.21,4.58-6.4h11.42V31.9h5.15V8.3H10.23
		c0,0-9.85,0.57-10.23,11.86c0,0,0.19,10.23,10.99,11.86L16.63,32.09z"/>
	<path class="st4" d="M153.9,27.12v4.77l13.54-0.19c0,0,9.84-0.69,9.72-11.74c0,0,0.59-10.79-9.66-11.74h-13.49v5.08h12.08
		c0,0,6.36,0.56,5.71,7.09c0,0,0.71,6.53-6.01,6.66L153.9,27.12z"/>
	<path class="st4" d="M60.16,26.84v4.77l13.54-0.19c0,0,9.84-0.69,9.72-11.74c0,0,0.59-10.8-9.66-11.74H60.28v5.08h12.07
		c0,0,6.36,0.57,5.71,7.09c0,0,0.71,6.53-6.01,6.65L60.16,26.84z"/>
	<path class="st4" d="M36.15,31.9h-4.77l0.19-14.44c0,0,0.69-10.48,11.74-10.36c0,0,10.8-0.63,11.74,10.29v14.37h-5.08V18.91
		c0,0-0.57-6.78-7.09-6.09c0,0-6.53-0.75-6.65,6.4L36.15,31.9z"/>
	<path class="st4" d="M88.8,13.28V8.22h13.31c0,0,7.32,0.1,7.32,8.39c0,0,0.21,4.35-3.69,7.06c0,0-0.41,0.2-0.13,0.55
		c0.03,0.03,0.07,0.08,0.13,0.12c0.51,0.41,2.97,2.1,2.97,7.63h-5.12c0,0-0.31-6.5-5.48-6.5h-9.47v-5.63h12.69
		c0,0,2.97-0.15,2.87-3.48c0,0,0.36-3.12-3.48-3.12L88.8,13.28z"/>
	<path class="st4" d="M126.32,7.45c-6.81,0-12.34,5.51-12.34,12.31c0,6.8,5.52,12.31,12.34,12.31c6.81,0,12.33-5.51,12.33-12.31
		C138.66,12.96,133.13,7.45,126.32,7.45z M126.32,26.85c-3.92,0-7.11-3.17-7.11-7.09c0-3.91,3.18-7.09,7.11-7.09
		c3.92,0,7.1,3.18,7.1,7.09C133.42,23.67,130.24,26.85,126.32,26.85z"/>
	<rect x="143.62" y="8.27" class="st4" width="5.37" height="23.75"/>
</g>
<g>
	<path d="M277.41,31.94h4.25v-18.1h-4.25V31.94z M279.53,11.46c1.33,0,2.37-1.02,2.37-2.31c0-1.3-1.04-2.32-2.37-2.32
		c-1.32,0-2.36,1.02-2.36,2.32C277.17,10.44,278.22,11.46,279.53,11.46z M295.82,6.89c-7.19,0-11.7,4.9-11.7,12.74
		s4.51,12.72,11.7,12.72c7.17,0,11.68-4.88,11.68-12.72S303,6.89,295.82,6.89z M295.82,10.64c4.39,0,7.19,3.48,7.19,8.98
		c0,5.48-2.8,8.97-7.19,8.97c-4.41,0-7.19-3.48-7.19-8.97C288.63,14.13,291.42,10.64,295.82,10.64z M309.3,25.01
		c0.19,4.54,3.91,7.34,9.58,7.34c5.96,0,9.72-2.94,9.72-7.62c0-3.67-2.12-5.74-7.12-6.88l-2.84-0.65c-3.02-0.72-4.27-1.67-4.27-3.31
		c0-2.05,1.88-3.42,4.66-3.42c2.82,0,4.75,1.38,4.95,3.69h4.2c-0.1-4.34-3.69-7.28-9.12-7.28c-5.36,0-9.17,2.95-9.17,7.33
		c0,3.52,2.15,5.7,6.69,6.75l3.19,0.75c3.11,0.73,4.37,1.76,4.37,3.54c0,2.05-2.07,3.52-5.04,3.52c-3.01,0-5.28-1.49-5.55-3.76
		L309.3,25.01L309.3,25.01z"/>
</g>
<g>
	<path class="st5" d="M1140.27,19.51c0.11-7.75,6.31-13.79,14.06-13.68c7.48,0.1,13.6,6.37,13.49,13.82
		c-0.11,7.66-6.33,13.77-13.91,13.64C1146.3,33.17,1140.17,26.97,1140.27,19.51z M1165.85,19.6c0.06-6.42-5.19-11.72-11.68-11.79
		c-6.52-0.07-11.86,5.14-11.93,11.62c-0.07,6.48,5.19,11.83,11.68,11.89C1160.48,31.38,1165.8,26.15,1165.85,19.6z"/>
	<path class="st5" d="M1169.34,24.43c0.7,0,1.32,0,1.96,0c0.06,0.55,0.09,1.09,0.19,1.62c0.52,2.65,2.2,4.22,4.74,4.88
		c2.61,0.67,5.24,0.54,7.81-0.26c1.52-0.48,2.76-1.36,3.22-2.97c0.56-1.95,0.25-4.53-2.38-5.67c-1.5-0.65-3.09-1.11-4.66-1.58
		c-2.09-0.63-4.19-1.19-6.15-2.17c-0.34-0.17-0.67-0.36-1-0.55c-3.13-1.88-3.46-5.02-2.57-7.62c0.57-1.66,1.83-2.69,3.41-3.35
		c1.32-0.55,2.72-0.78,4.14-0.87c1.84-0.11,3.66-0.04,5.44,0.48c3.15,0.93,5,3.27,5.17,6.55c0.02,0.33,0,0.66,0,1.06
		c-0.33,0-0.65,0-0.96,0c-0.3,0-0.6,0-0.92,0c-0.08-0.63-0.12-1.22-0.24-1.79c-0.45-2.14-1.81-3.44-3.9-3.97
		c-2.37-0.6-4.76-0.57-7.1,0.1c-2.99,0.86-3.79,3.18-3.36,5.41c0.25,1.34,1.23,2.13,2.36,2.74c1.42,0.77,2.97,1.16,4.5,1.63
		c2.07,0.63,4.12,1.32,6.17,2c0.32,0.1,0.61,0.27,0.91,0.43c2.57,1.36,3.48,3.28,3.32,6.22c-0.15,2.89-1.72,4.78-4.4,5.68
		c-3.6,1.21-7.26,1.35-10.83-0.1c-2.88-1.18-4.4-3.45-4.77-6.51C1169.4,25.36,1169.38,24.92,1169.34,24.43z"/>
	<path class="st6" d="M1074.57,13.72c0.64,0,1.22-0.02,1.79,0.02c0.1,0.01,0.22,0.26,0.27,0.42c0.86,2.68,1.7,5.36,2.55,8.04
		c0.75,2.38,1.51,4.75,2.26,7.13c0.05,0.16,0.11,0.31,0.22,0.59c0.12-0.28,0.21-0.44,0.26-0.61c1.59-5.02,3.18-10.03,4.75-15.05
		c0.13-0.42,0.32-0.61,0.77-0.56c0.35,0.04,0.7,0.03,1.05,0c0.42-0.04,0.58,0.14,0.7,0.52c1.57,5.01,3.16,10.01,4.74,15.01
		c0.06,0.2,0.15,0.39,0.26,0.7c0.12-0.28,0.2-0.44,0.25-0.6c1.57-4.97,3.14-9.95,4.71-14.92c0.22-0.69,0.21-0.7,0.97-0.7
		c0.36,0,0.73,0,1.17,0c-0.06,0.24-0.1,0.44-0.16,0.64c-1.38,4.36-2.77,8.72-4.15,13.09c-0.51,1.61-1.03,3.22-1.51,4.83
		c-0.13,0.43-0.32,0.67-0.79,0.58c-0.04-0.01-0.09,0-0.14,0c-1.45,0-1.44,0-1.88-1.4c-1.5-4.77-3.01-9.54-4.52-14.31
		c-0.04-0.13-0.1-0.25-0.19-0.49c-0.11,0.27-0.2,0.43-0.25,0.61c-1.59,5.02-3.18,10.03-4.75,15.05c-0.12,0.39-0.29,0.62-0.73,0.54
		c-0.09-0.02-0.18,0-0.27,0c-1.35,0-1.35,0-1.75-1.26c-1.81-5.74-3.63-11.48-5.44-17.22C1074.69,14.17,1074.64,13.99,1074.57,13.72z
		"/>
	<path class="st6" d="M1118.17,26.69c-0.29,1.42-0.8,2.66-1.64,3.74c-1.38,1.79-3.25,2.64-5.49,2.76c-1.56,0.08-3.08-0.09-4.49-0.82
		c-1.69-0.88-2.83-2.27-3.45-4.04c-1.22-3.51-1.26-7.06,0.17-10.52c1.19-2.9,3.5-4.34,6.63-4.48c1.68-0.07,3.29,0.18,4.74,1.07
		c1.81,1.11,2.85,2.78,3.34,4.78c0.28,1.14,0.34,2.34,0.5,3.5c0.06,0.44-0.13,0.54-0.54,0.54c-4.41-0.01-8.82-0.01-13.23-0.01
		c-0.62,0-0.63,0.04-0.59,0.65c0.09,1.39,0.28,2.74,0.85,4.03c1.17,2.63,3.6,3.75,6.35,3.38c2.47-0.34,3.95-1.81,4.73-4.08
		c0.14-0.41,0.32-0.56,0.74-0.52C1117.23,26.72,1117.66,26.69,1118.17,26.69z M1116.57,21.29c-0.18-0.71-0.31-1.35-0.5-1.97
		c-1.48-4.57-6.3-4.91-8.95-3.23c-1.67,1.07-2.39,2.74-2.74,4.61c-0.12,0.64-0.11,0.65,0.56,0.65c3.65,0,7.29,0,10.94,0
		C1116.06,21.35,1116.26,21.32,1116.57,21.29z"/>
	<path class="st6" d="M1122.02,26.7c0.64,0,1.2-0.02,1.75,0.02c0.11,0.01,0.24,0.24,0.3,0.39c0.32,0.9,0.73,1.74,1.38,2.45
		c1.25,1.37,2.84,1.86,4.66,1.8c2.03-0.07,3.65-0.9,4.66-2.66c0.49-0.86,0.84-1.83,1.04-2.8c0.46-2.19,0.39-4.39-0.32-6.53
		c-0.66-1.98-1.88-3.47-3.99-3.97c-3.38-0.8-6.58,0.54-7.59,4.67c-0.22,0.89-0.28,1.83-0.37,2.75c-0.03,0.31-0.11,0.44-0.43,0.42
		c-0.37-0.02-0.74,0.02-1.1-0.02c-0.12-0.01-0.25-0.19-0.32-0.32c-0.05-0.08-0.01-0.21-0.01-0.31c0-5.24,0-10.48,0-15.72
		c0-0.64,0-0.64,0.66-0.64c0.23,0,0.46,0.02,0.69,0c0.42-0.05,0.51,0.14,0.51,0.53c-0.01,2.95-0.01,5.91-0.01,8.86
		c0,0.19,0,0.38,0,0.57c0.08,0.05,0.15,0.11,0.23,0.16c0.07-0.15,0.12-0.31,0.21-0.44c1.31-1.67,3.07-2.44,5.15-2.56
		c1.4-0.08,2.77,0.04,4.08,0.61c1.97,0.86,3.26,2.36,3.93,4.34c1.15,3.42,1.19,6.89-0.14,10.27c-1.17,2.97-3.47,4.48-6.67,4.63
		c-1.91,0.09-3.71-0.24-5.28-1.41C1123.36,30.54,1122.5,28.8,1122.02,26.7z"/>
</g>
<g>
	<path class="st7" d="M953.03,8.57c1.36-0.26,2.74-0.46,4.1-0.75c0.27-0.04,0.54-0.02,0.81,0.01c0.05,0.17,0.09,0.35,0.08,0.53
		c0,7.36,0,14.72,0,22.09c0.01,0.37-0.33,0.74-0.71,0.72c-1.43,0-2.85,0-4.28,0c-0.38,0.02-0.75-0.33-0.72-0.72
		c0-7.04,0-14.08,0-21.12C952.36,8.97,952.66,8.62,953.03,8.57L953.03,8.57z M958.31,8.08c3.26,4.53,6.54,9.05,9.8,13.58
		c0.18,0.3,0.52,0.55,0.47,0.93c-0.01,2.83,0.02,5.66-0.02,8.49c-0.11-0.06-0.2-0.13-0.28-0.22c-3.2-4.44-6.41-8.88-9.61-13.32
		c-0.15-0.24-0.42-0.45-0.39-0.76C958.3,13.89,958.27,10.98,958.31,8.08L958.31,8.08z M870.33,8.41c0.17-0.15,0.37-0.32,0.61-0.3
		c6.07,0,12.14,0,18.22,0c0.35-0.05,0.75,0.25,0.73,0.62c0.01,1.23,0,2.46,0,3.69c0.04,0.35-0.29,0.67-0.64,0.64
		c-1.87,0-3.74,0-5.61,0c-0.21-0.01-0.41,0.05-0.61,0.09c0.01,5.73,0,11.45,0,17.18c0,0.24,0,0.56-0.27,0.67
		c-1.06,0.09-2.12,0.02-3.19,0.04c-0.6-0.02-1.22,0.07-1.81-0.05c-0.2-0.03-0.24-0.25-0.29-0.41c-0.11-0.49-0.06-1-0.06-1.5
		c0-4.84,0-9.68,0-14.52c0.01-0.54,0.03-1.08-0.07-1.61c-2.06,0.02-4.13,0-6.19,0.02c-0.33,0.03-0.63-0.13-0.88-0.32
		c0.03-1.1,0-2.21,0.01-3.31C870.27,9.02,870.23,8.71,870.33,8.41L870.33,8.41z M894.59,8.17c0.29-0.11,0.63-0.03,0.94-0.05
		c1.29,0.01,2.59-0.02,3.88,0.01c0.22,0.13,0.49,0.32,0.45,0.61c0,7.23,0,14.47,0,21.7c0.08,0.41-0.34,0.78-0.74,0.72
		c-1.49-0.01-2.97,0.02-4.46-0.01c-0.23-0.13-0.5-0.31-0.45-0.61c0-7.27,0-14.53,0-21.8C894.17,8.48,894.39,8.3,894.59,8.17
		L894.59,8.17z M928.68,8.84c-0.07-0.4,0.34-0.78,0.73-0.72c5.68,0,11.37,0,17.05,0c0.38-0.03,0.71,0.34,0.7,0.72
		c0,1.2,0,2.4,0,3.59c-0.01,0.36-0.34,0.69-0.71,0.64c-3.97,0-7.94,0-11.91,0c-0.15,0-0.3,0.04-0.45,0.08
		c0.02,1.29,0,2.57,0.01,3.86c3.31,0.03,6.63,0,9.94,0.02c0.27-0.02,0.49,0.21,0.61,0.43c0.03,1.23,0,2.46,0.01,3.69
		c0.04,0.25-0.16,0.43-0.29,0.62c-2.92,0.04-5.84,0.01-8.76,0.02c-0.5,0.02-1.02-0.07-1.51,0.09c0.01,1.42,0.01,2.84,0,4.25
		c0.15,0.04,0.29,0.08,0.45,0.08c3.97,0,7.94,0,11.92,0c0.41-0.07,0.73,0.36,0.7,0.74c0,1.17,0,2.33,0,3.5
		c0.02,0.37-0.31,0.75-0.7,0.72c-5.69,0-11.37,0-17.05,0c-0.39,0.05-0.81-0.31-0.73-0.72C928.68,23.24,928.68,16.04,928.68,8.84
		L928.68,8.84z M968.86,8.84c-0.07-0.41,0.35-0.75,0.73-0.72c1.39,0,2.78,0,4.18,0c0.45-0.05,0.81,0.39,0.8,0.82
		c0.01,6.91,0,13.82,0,20.73c0,0.33-0.11,0.69-0.38,0.89c-0.26,0.19-0.6,0.17-0.91,0.24c-1,0.19-2.01,0.36-3.01,0.55
		c-0.47,0.04-0.94,0.07-1.41,0.02C968.85,23.86,968.86,16.35,968.86,8.84L968.86,8.84z M905.15,8.74c-0.04-0.35,0.31-0.61,0.64-0.56
		c4.91,0,9.81,0,14.72,0c0.27,0.01,0.57-0.02,0.81,0.15c0.37,0.24,0.5,0.68,0.7,1.05c0.52,1.03,1.05,2.05,1.56,3.08
		c0.11,0.18,0.07,0.41,0.09,0.61c-5.92,0.02-11.85,0-17.77,0.01c-0.33,0.04-0.75-0.18-0.73-0.55C905.14,11.27,905.15,10,905.15,8.74
		L905.15,8.74z M916.32,13.56c0.11-0.12,0.24-0.26,0.42-0.23c2.26,0,4.52-0.01,6.79,0.01c-0.05,0.12-0.11,0.25-0.2,0.34
		c-3.77,4.08-7.52,8.17-11.3,12.23c-0.97,0.07-1.96,0.01-2.93,0.03c-1.36,0-2.72,0.01-4.08-0.01c0.06-0.12,0.11-0.24,0.2-0.34
		C908.92,21.58,912.62,17.58,916.32,13.56L916.32,13.56z M904.87,26.21c5.92-0.02,11.85,0,17.78-0.01c0.33-0.05,0.76,0.17,0.74,0.55
		c0.01,1.26,0,2.52,0,3.79c0.05,0.36-0.31,0.61-0.64,0.56c-4.97,0-9.94,0-14.91,0c-0.43,0.04-0.83-0.23-1-0.62
		c-0.62-1.22-1.25-2.44-1.86-3.66C904.86,26.63,904.89,26.41,904.87,26.21L904.87,26.21z M904.87,26.21"/>
	<path class="st8" d="M928.54,9.91c0-0.45-0.02-0.91,0.03-1.36c0.01,7.39,0.01,14.79,0,22.18c-0.06-0.45-0.03-0.91-0.03-1.36
		C928.54,22.88,928.54,16.4,928.54,9.91L928.54,9.91z M899.96,8.64C899.98,8.8,900,8.96,900,9.13c0,6.75,0,13.5,0,20.24
		c0,0.42,0.02,0.85-0.04,1.27C899.95,23.31,899.95,15.97,899.96,8.64L899.96,8.64z M870.25,12.64c0.25,0.2,0.55,0.36,0.88,0.32
		c2.06-0.02,4.13,0.01,6.19-0.02c0.1,0.53,0.07,1.07,0.07,1.61c0,4.84,0,9.68,0,14.52c0.01,0.5-0.05,1.01,0.06,1.5
		c0.05,0.16,0.09,0.38,0.29,0.41c0.6,0.12,1.21,0.03,1.81,0.05c1.06-0.02,2.13,0.05,3.19-0.04c-0.03,0.04-0.09,0.12-0.12,0.16
		c-1.44,0.02-2.88,0-4.32,0.01c-0.21-0.01-0.42,0.01-0.62-0.05c-0.2-0.14-0.41-0.34-0.39-0.6c-0.01-5.79,0.01-11.59-0.01-17.39
		c-2.08-0.02-4.17,0-6.25,0C870.69,13.18,870.34,12.98,870.25,12.64L870.25,12.64z M870.25,12.64"/>
</g>
<g>
	<path class="st9" d="M707.97,9.44c1.11-1.34,1.66-3.06,1.54-4.8c-1.71,0.16-3.28,0.99-4.39,2.29c-1.12,1.26-1.68,2.92-1.57,4.6
		C705.27,11.58,706.91,10.8,707.97,9.44 M709.41,11.86c-2.45-0.14-4.51,1.4-5.68,1.4c-1.17,0-2.96-1.32-4.88-1.29
		c-2.56,0.07-4.9,1.5-6.12,3.75c-2.62,4.55-0.7,11.32,1.85,15.02c1.24,1.76,2.73,3.86,4.7,3.79s2.59-1.22,4.84-1.22
		c2.26,0,2.92,1.22,4.88,1.18c1.96-0.04,3.32-1.76,4.55-3.67c0.88-1.3,1.57-2.73,2.05-4.23c-2.4-1.06-3.96-3.44-3.97-6.07
		c0.03-2.32,1.24-4.46,3.2-5.69C713.58,13.05,711.58,11.95,709.41,11.86 M725.02,8.33v4.99h3.99v3.3h-3.99v11.81
		c0,1.76,0.79,2.66,2.54,2.66c0.48-0.01,0.96-0.04,1.43-0.1v3.32c-0.78,0.13-1.57,0.18-2.36,0.17c-4.13,0-5.72-1.6-5.72-5.62V16.7
		h-3.13v-3.31h3.04V8.33L725.02,8.33z M742.95,34.31h-4.37l-7.35-20.91h4.35l5.16,16.8h0.1l5.16-16.8h4.27L742.95,34.31z
		 M762.15,34.31h-3.78v-8.57h-8.12v-3.77h8.1v-8.57h3.78v8.57h8.12v3.77h-8.1V34.31z"/>
</g>
</svg>
