<?xml version="1.0" standalone="no"?>
<!DOCTYPE svg PUBLIC "-//W3C//DTD SVG 20010904//EN"
 "http://www.w3.org/TR/2001/REC-SVG-20010904/DTD/svg10.dtd">
<svg version="1.0" xmlns="http://www.w3.org/2000/svg"
 width="500.000000pt" height="500.000000pt" viewBox="0 0 500.000000 500.000000"
 preserveAspectRatio="xMidYMid meet">
<metadata>
Created by potrace 1.14, written by Peter Selinger 2001-2017
</metadata>
<g transform="translate(0.000000,500.000000) scale(0.100000,-0.100000)"
fill="#000000" stroke="none">
<path d="M890 4990 c-240 -43 -425 -136 -582 -294 -155 -156 -254 -345 -293
-562 -21 -118 -21 -3150 0 -3269 79 -438 411 -770 850 -850 68 -12 318 -14
1665 -12 872 1 1596 6 1610 10 28 8 76 18 87 19 19 2 144 53 207 84 266 134
449 365 538 681 l22 78 3 1590 c1 973 -2 1613 -8 1650 -23 149 -97 328 -184
451 -140 195 -374 354 -598 404 -23 5 -55 12 -72 17 -40 10 -3187 13 -3245 3z"/>
</g>
</svg>
