<?xml version="1.0" encoding="utf-8"?>
<!-- Generator: Adobe Illustrator 26.0.3, SVG Export Plug-In . SVG Version: 6.00 Build 0)  -->
<svg version="1.1" id="Layer_1" xmlns="http://www.w3.org/2000/svg" xmlns:xlink="http://www.w3.org/1999/xlink" x="0px" y="0px"
	 viewBox="0 0 1424 1158.5" style="enable-background:new 0 0 1424 1158.5;" xml:space="preserve">
<style type="text/css">
	.st0{fill-rule:evenodd;clip-rule:evenodd;fill:#F3F7FC;}
	.st1{fill:#F3F7FC;}
</style>
<path class="st0" d="M688.6,203.9c-232-44.2-454.6-51.5-508.3,98.7c-53.6,150.1,296,671.3,471.8,718.5
	c175.9,47.2,268.1-188.7,448.2-287.4C1280.5,635,1267,212.3,1149,154.4C1031.1,96.5,920.5,248.2,688.6,203.9L688.6,203.9z
	 M688.6,203.9"/>
<path class="st0" d="M322.4,881.3c0,48.9-39.6,88.5-88.5,88.5c-48.9,0-88.5-39.6-88.5-88.5c0-48.9,39.6-88.5,88.5-88.5
	C282.8,792.8,322.4,832.4,322.4,881.3L322.4,881.3z M322.4,881.3"/>
<path class="st0" d="M145.2,965c0,19.4-15.7,35.1-35.1,35.1c-19.4,0-35.1-15.7-35.1-35.1c0-19.4,15.7-35.1,35.1-35.1
	C129.5,929.9,145.2,945.6,145.2,965L145.2,965z M145.2,965"/>
<path class="st0" d="M1280.1,94.6c0,33.8-27.4,61.2-61.2,61.2c-33.8,0-61.2-27.4-61.2-61.2c0-33.8,27.4-61.2,61.2-61.2
	C1252.7,33.5,1280.1,60.9,1280.1,94.6L1280.1,94.6z M1280.1,94.6"/>
<path class="st0" d="M104.1,336.3c0,0-87.1-91.2-90.6-154.8c-3.5-63.6,55.4-40.1,52.9-4.2C64,213.3,53,247.6,104.1,336.3
	L104.1,336.3z M104.1,336.3"/>
<path class="st0" d="M141.6,356.7c0,0-34.6-70.2-24.8-108.5c9.8-38.3,40.3-13.4,32.1,7.4C140.7,276.4,127.9,294.6,141.6,356.7
	L141.6,356.7z M141.6,356.7"/>
<path class="st0" d="M953.1,920.3c0,0,104.7,70.3,168,63c63.3-7.3,30.1-61.4-4.9-52.9C1081.2,939,1049.3,955.7,953.1,920.3
	L953.1,920.3z M953.1,920.3"/>
<path class="st0" d="M923,937c0,0,33.7,70.6,69.9,86.7c36.1,16,35.5-23.3,14.1-29.8C985.5,987.5,963.2,986.3,923,937L923,937z
	 M923,937"/>
<path class="st1" d="M242.3,152.8c-2.2,1.7-5.4,1.3-7.2-0.9c-1.7-2.2-1.3-5.5,0.9-7.2c35.3-27.2,80.8-44.1,127.9-48.6
	c45.4-4.3,92.3,3,133,24c2.5,1.3,3.5,4.4,2.2,6.9c-1.3,2.5-4.4,3.5-6.9,2.2c-38.9-20-83.9-27-127.4-22.9
	C319.6,110.6,276,126.8,242.3,152.8L242.3,152.8z M242.3,152.8"/>
<path class="st1" d="M806,1031.7c2.6-1.2,5.6-0.1,6.8,2.4c1.2,2.6,0.2,5.6-2.4,6.9c-39.6,19.2-85.1,32.7-132.4,29.1
	c-47.4-3.6-96.2-24.2-142.2-73.1c-1.9-2.1-1.8-5.3,0.2-7.3c2.1-2,5.3-1.8,7.3,0.2c44,46.8,90.5,66.5,135.5,69.9
	C724,1063.3,767.8,1050.3,806,1031.7L806,1031.7z M806,1031.7"/>
<path class="st1" d="M1344.3,805.6c-1.8,2.2-5.1,2.4-7.2,0.6c-2.2-1.8-2.4-5.1-0.6-7.2c28.1-33,49.6-87.1,58.7-142.9
	c8.5-51.9,6.2-105.2-11.6-144.3c-1.2-2.6,0-5.6,2.5-6.8c2.6-1.2,5.6,0,6.8,2.5c18.7,41,21.2,96.4,12.4,150.2
	C1395.9,715.3,1373.5,771.2,1344.3,805.6L1344.3,805.6z M1344.3,805.6"/>
</svg>
