<?xml version="1.0" encoding="utf-8"?>
<!-- Generator: Adobe Illustrator 26.0.3, SVG Export Plug-In . SVG Version: 6.00 Build 0)  -->
<svg version="1.1" id="Layer_1" xmlns="http://www.w3.org/2000/svg" xmlns:xlink="http://www.w3.org/1999/xlink" x="0px" y="0px"
	 viewBox="0 0 405.6 395.6" style="enable-background:new 0 0 405.6 395.6;" xml:space="preserve">
<style type="text/css">
	.st0{fill:#330000;}
	.st1{fill:#FF9A00;}
</style>
<path class="st0" d="M74.2,3.6h257.3c39,0,70.6,31.5,70.6,70.6v247.3c0,39-31.5,70.6-70.6,70.6H74.2c-39,0-70.6-31.5-70.6-70.6V74.1
	C3.6,35.1,35.1,3.6,74.2,3.6z"/>
<g>
	<path class="st1" d="M196.2,236h-61.8l-12.6,39c-0.3,1.5-1.7,2.5-3.2,2.3H87.4c-1.8,0-2.3-1-1.8-3l53.5-153.9
		c0.5-1.7,1-3.5,1.7-5.5c0.7-3.5,1-7.1,1-10.8c-0.2-0.8,0.5-1.7,1.3-1.8h43c1.3,0,2,0.5,2.2,1.3l60.6,171c0.5,1.8,0,2.7-1.7,2.7
		h-34.7c-1.2,0.2-2.3-0.7-2.7-1.8L196.2,236z M144,202.3h42.2c-1-3.5-2.3-7.6-3.8-12c-1.5-4.5-3-9.3-4.5-14.3
		c-1.7-5.1-3.2-10.1-4.8-15.3c-1.7-5.1-3.2-10-4.5-14.8c-1.3-4.6-2.5-9-3.7-12.9h-0.3c-1.5,7.1-3.3,14.3-5.6,21.4
		c-2.5,8-5,16.3-7.6,24.6C149,187.5,146.5,195.3,144,202.3L144,202.3z M285.8,131.4c-5.5,0.2-10.8-2-14.8-5.8
		c-3.8-4.2-5.8-9.6-5.6-15.3c-0.2-5.6,2-11,6-14.8c4-3.8,9.3-5.8,14.8-5.8c6.5,0,11.5,2,15.1,5.8c3.7,4,5.6,9.3,5.5,14.8
		c0.2,5.6-1.8,11.1-5.8,15.3C297.1,129.6,291.5,131.7,285.8,131.4L285.8,131.4z M267.2,275.5V147.6c0-1.7,0.7-2.3,2.2-2.3h32.9
		c1.5,0,2.2,0.8,2.2,2.3v127.8c0,1.8-0.7,2.7-2.2,2.7h-32.5C268,278.1,267.2,277.1,267.2,275.5z"/>
</g>
</svg>
