<?xml version="1.0" encoding="utf-8"?>
<!-- Generator: Adobe Illustrator 26.0.3, SVG Export Plug-In . SVG Version: 6.00 Build 0)  -->
<svg version="1.1" id="Layer_1" xmlns="http://www.w3.org/2000/svg" xmlns:xlink="http://www.w3.org/1999/xlink" x="0px" y="0px"
	 viewBox="0 0 128.9 135.5" style="enable-background:new 0 0 128.9 135.5;" xml:space="preserve">
<style type="text/css">
	.st0{fill:#EBF1FF;}
</style>
<path class="st0" d="M20.3,113c2,1.4,4.9,2,8.3,2.4c7.9,1,18.5,0.9,26.9,7.9c10.2,8.4,17.4,12.3,25.6,12.2c2.8,0,5.8-0.6,9-1.6
	c4.4-1.4,8.6-4.2,11.8-8.1c3.7-4.4,6.2-10.2,6.5-16.7c0.2-5.6-1.2-11.7-5-17.9C92,72.6,104.1,60.4,110,49.2
	c2.7-5.2,3.7-10.6,3.3-15.7c-0.5-5.7-3-10.9-7-15.1c-1.9-1.9-4.1-3.6-6.6-5c-4.3-2.3-9.6-2.4-15.6-1c-6.6,1.5-14,4.8-21.9,8.7
	C46.9,28.7,41,22,30.8,18.6c-2.1-0.7-4.4-1.1-6.7-1.2c-4.6-0.2-9.4,0.8-13,3.2c-3.7,2.5-6.2,6.5-6.2,12.2c0,2.8,0.6,5.9,1.9,9.5
	C16.7,70.1,26,66,19.3,94c-0.3,1.4-0.7,2.9-1.1,4.5C16,106.8,17.2,110.9,20.3,113z"/>
<path class="st0" d="M111,93.4c0.9,1,2,1.9,3.1,2.5c0.5,0.2,0.9,0.4,1.4,0.6c1.5,0.4,3,0.4,4.6,0c1.9-0.5,3.7-1.6,5.2-3.1
	c1.4-1.5,2.6-3.5,3.2-5.9c0.5-2.1,0.6-4.3,0.2-6.5c-0.3-1.7-0.7-3.3-1.4-4.8c-0.6-1.5-1.4-2.9-2.4-4c-0.8-1-1.8-1.8-2.7-2.3
	c-0.9-0.4-1.7-0.7-2.6-0.9c-2.1-0.4-3.9,0.1-5.6,1c-1,0.6-2,1.4-2.8,2.4c-1.1,1.3-2,2.8-2.7,4.3c-0.7,1.5-1.1,3.2-1.3,4.8
	C106.8,86.1,108.4,90.5,111,93.4z"/>
<path class="st0" d="M110.8,63.8c1.1,1.1,2.6,1.4,4.1,1.2c1.3-0.2,2.5-0.7,3.4-1.4c1.7-1.3,2.3-3.1,2.1-4.8
	c-0.1-1.1-0.6-2.3-1.4-3.1c-0.8-0.8-2-1.4-3.3-1.4c-1,0-2.1,0.2-3.1,0.8c-0.5,0.3-0.9,0.6-1.2,1c-0.9,0.9-1.4,2-1.6,3.1
	c-0.2,1.1-0.2,2.2,0.1,3.1C110,62.8,110.4,63.3,110.8,63.8z"/>
</svg>
