<?xml version="1.0" encoding="utf-8"?>
<!-- Generator: Adobe Illustrator 26.0.0, SVG Export Plug-In . SVG Version: 6.00 Build 0)  -->
<svg version="1.1" id="Layer_1" xmlns="http://www.w3.org/2000/svg" xmlns:xlink="http://www.w3.org/1999/xlink" x="0px" y="0px"
	 viewBox="0 0 393 392.9" style="enable-background:new 0 0 393 392.9;" xml:space="preserve">
<style type="text/css">
	.st0{fill:url(#SVGID_1_);}
</style>
<linearGradient id="SVGID_1_" gradientUnits="userSpaceOnUse" x1="0" y1="196.4556" x2="392.9995" y2="196.4556">
	<stop  offset="0" style="stop-color:#563092"/>
	<stop  offset="1" style="stop-color:#CB4298"/>
</linearGradient>
<path class="st0" d="M190.6,392.9c-4-0.1-8.1-0.4-12.1-0.7l0.3-3c3.9,0.4,7.9,0.6,11.9,0.7L190.6,392.9z M202.7,392.9l-0.1-3
	c4-0.1,8-0.4,11.9-0.7l0.3,3C210.7,392.5,206.7,392.8,202.7,392.9z M166.5,390.7c-4-0.6-8-1.3-11.9-2.2l0.6-2.9
	c3.9,0.8,7.8,1.6,11.7,2.2L166.5,390.7z M226.7,390.7l-0.5-3c3.9-0.6,7.9-1.3,11.7-2.2l0.6,2.9C234.7,389.3,230.7,390.1,226.7,390.7
	z M142.8,385.6c-3.9-1.1-7.7-2.3-11.5-3.7l1-2.8c3.7,1.3,7.6,2.5,11.4,3.6L142.8,385.6z M250.4,385.5l-0.8-2.9
	c3.8-1.1,7.6-2.3,11.4-3.6l1,2.8C258.1,383.2,254.2,384.4,250.4,385.5z M120,377.6c-3.7-1.6-7.4-3.3-11-5.1l1.3-2.7
	c3.5,1.8,7.2,3.4,10.8,5L120,377.6z M273.2,377.5l-1.2-2.8c3.6-1.5,7.3-3.2,10.8-5l1.3,2.7C280.6,374.2,276.9,375.9,273.2,377.5z
	 M98.3,366.8c-3.5-2-6.9-4.2-10.3-6.4l1.7-2.5c3.3,2.2,6.7,4.3,10.1,6.3L98.3,366.8z M294.8,366.7l-1.5-2.6c3.4-2,6.8-4.1,10.1-6.3
	l1.7,2.5C301.7,362.5,298.3,364.7,294.8,366.7z M78.2,353.4c-3.2-2.4-6.4-5-9.4-7.6l2-2.3c3,2.6,6.1,5.1,9.3,7.5L78.2,353.4z
	 M314.9,353.3l-1.8-2.4c3.1-2.4,6.3-4.9,9.3-7.5l2,2.3C321.3,348.4,318.1,350.9,314.9,353.3z M59.8,337.6c-2.9-2.8-5.7-5.7-8.4-8.7
	l2.2-2c2.7,2.9,5.5,5.8,8.3,8.5L59.8,337.6z M333.3,337.6l-2.1-2.2c2.8-2.8,5.6-5.6,8.3-8.6l2.2,2
	C339,331.9,336.2,334.8,333.3,337.6z M43.5,319.8c-2.5-3.1-5-6.4-7.3-9.6l2.4-1.7c2.3,3.2,4.7,6.4,7.2,9.5L43.5,319.8z M349.6,319.7
	l-2.3-1.9c2.5-3.1,4.9-6.3,7.2-9.5l2.4,1.7C354.6,313.3,352.1,316.6,349.6,319.7z M29.5,300.1c-2.1-3.4-4.2-6.9-6.1-10.5l2.6-1.4
	c1.9,3.5,3.9,6.9,6,10.3L29.5,300.1z M363.6,300l-2.5-1.6c2.1-3.4,4.1-6.8,6-10.3l2.6,1.4C367.7,293,365.7,296.6,363.6,300z
	 M18,278.8c-1.7-3.6-3.3-7.4-4.7-11.1l2.8-1.1c1.4,3.7,3,7.4,4.7,10.9L18,278.8z M375.1,278.6l-2.7-1.3c1.7-3.6,3.2-7.3,4.7-11
	l2.8,1.1C378.3,271.2,376.7,275,375.1,278.6z M9.3,256.3c-1.2-3.8-2.3-7.7-3.3-11.6l2.9-0.7c1,3.8,2.1,7.7,3.3,11.5L9.3,256.3z
	 M383.8,256.1l-2.9-0.9c1.2-3.8,2.3-7.6,3.3-11.5l2.9,0.7C386.1,248.3,385,252.2,383.8,256.1z M3.4,232.8c-0.7-3.9-1.4-8-1.9-12
	l3-0.4c0.5,3.9,1.1,7.9,1.8,11.8L3.4,232.8z M389.7,232.6l-2.9-0.5c0.7-3.9,1.3-7.9,1.8-11.8l3,0.4
	C391,224.6,390.4,228.6,389.7,232.6z M0.4,208.8c-0.2-4-0.4-8.1-0.4-12.1l3,0c0,4,0.1,8,0.4,11.9L0.4,208.8z M392.6,208.6l-3-0.2
	c0.2-3.9,0.4-7.9,0.4-11.9l0-0.5h3l0,0.4C393,200.5,392.9,204.6,392.6,208.6z M3.3,184.8l-3-0.2c0.2-4,0.6-8.1,1.1-12l3,0.4
	C3.9,176.9,3.6,180.9,3.3,184.8z M389.6,184.1c-0.2-4-0.6-7.9-1.1-11.9l3-0.4c0.5,4,0.9,8,1.1,12L389.6,184.1z M6.2,161.2l-3-0.5
	c0.7-4,1.6-7.9,2.6-11.8l2.9,0.7C7.8,153.4,6.9,157.3,6.2,161.2z M386.7,160.5c-0.7-3.9-1.6-7.8-2.6-11.6l2.9-0.7
	c1,3.9,1.9,7.9,2.6,11.8L386.7,160.5z M12,138.1l-2.9-0.9c1.2-3.8,2.6-7.7,4-11.4l2.8,1.1C14.5,130.5,13.2,134.3,12,138.1z
	 M380.8,137.4c-1.2-3.8-2.5-7.5-4-11.2l2.8-1.1c1.5,3.7,2.8,7.6,4,11.4L380.8,137.4z M20.6,115.8l-2.7-1.3c1.7-3.7,3.5-7.3,5.4-10.8
	l2.6,1.4C24,108.6,22.2,112.2,20.6,115.8z M372.2,115.2c-1.7-3.6-3.5-7.2-5.3-10.6l2.6-1.4c1.9,3.5,3.7,7.2,5.4,10.8L372.2,115.2z
	 M31.8,94.8l-2.6-1.6c2.1-3.4,4.4-6.8,6.7-10.1l2.4,1.7C36.1,88.1,33.9,91.4,31.8,94.8z M360.8,94.3c-2.1-3.4-4.3-6.7-6.6-9.9
	l2.4-1.7c2.3,3.3,4.6,6.7,6.7,10.1L360.8,94.3z M45.6,75.3l-2.3-1.9c2.5-3.1,5.2-6.2,7.9-9.2l2.2,2C50.7,69.2,48.1,72.3,45.6,75.3z
	 M347,74.9c-2.5-3.1-5.1-6.1-7.8-9l2.2-2c2.7,3,5.4,6,7.9,9.2L347,74.9z M61.6,57.7l-2.1-2.2c2.9-2.8,5.9-5.5,8.9-8.2l2,2.3
	C67.4,52.3,64.5,55,61.6,57.7z M331,57.4c-2.8-2.8-5.8-5.4-8.8-8l1.9-2.3c3.1,2.6,6.1,5.3,9,8.1L331,57.4z M79.7,42.2l-1.8-2.4
	c3.2-2.4,6.5-4.8,9.9-7l1.7,2.5C86.1,37.5,82.9,39.8,79.7,42.2z M312.8,41.9c-3.2-2.4-6.4-4.7-9.7-6.9l1.7-2.5
	c3.4,2.2,6.7,4.6,9.9,7L312.8,41.9z M99.5,29L98,26.4c3.5-2,7-3.9,10.6-5.7l1.3,2.7C106.5,25.1,102.9,27,99.5,29z M293,28.7
	c-3.4-2-7-3.9-10.5-5.6l1.3-2.7c3.6,1.8,7.2,3.7,10.7,5.7L293,28.7z M120.8,18.4l-1.2-2.8c3.7-1.6,7.5-3,11.3-4.4l1,2.8
	C128.2,15.4,124.4,16.8,120.8,18.4z M271.6,18.1c-3.6-1.5-7.4-3-11.1-4.3l1-2.8c3.8,1.3,7.6,2.8,11.3,4.4L271.6,18.1z M143.2,10.4
	l-0.8-2.9c3.9-1.1,7.8-2.1,11.7-3l0.6,2.9C150.9,8.4,147,9.3,143.2,10.4z M249.1,10.2c-3.8-1.1-7.7-2-11.6-2.9l0.6-2.9
	c3.9,0.8,7.9,1.8,11.7,2.9L249.1,10.2z M166.5,5.3l-0.5-3c4-0.6,8-1.1,12-1.5l0.3,3C174.4,4.2,170.4,4.7,166.5,5.3z M225.8,5.2
	c-3.9-0.6-7.9-1.1-11.8-1.4l0.3-3c4,0.4,8,0.8,12,1.5L225.8,5.2z M190.2,3.1l-0.1-3c4-0.1,8.1-0.1,12.1,0l-0.1,3
	C198.2,3,194.2,3,190.2,3.1z"/>
</svg>
