<?xml version="1.0" encoding="utf-8"?>
<!-- Generator: Adobe Illustrator 26.0.0, SVG Export Plug-In . SVG Version: 6.00 Build 0)  -->
<svg version="1.1" id="Layer_2_00000089558780147609959670000006970772710354006163_"
	 xmlns="http://www.w3.org/2000/svg" xmlns:xlink="http://www.w3.org/1999/xlink" x="0px" y="0px" viewBox="0 0 325.3 325.3"
	 style="enable-background:new 0 0 325.3 325.3;" xml:space="preserve">
<style type="text/css">
	.st0{opacity:0.5;fill:none;stroke:#000000;stroke-width:0.5;stroke-miterlimit:10;enable-background:new    ;}
	.st1{fill:#E80000;}
	.st2{fill:#FFFFFF;}
</style>
<path class="st0" d="M1679.3,338.8c0.2,0,0.3,0,0.5,0s0.3,0,0.5,0s0.3,0,0.5,0c3.1,0.1,6,0.1,8.8,0c0.1,0,0.3,0,0.4,0h7.3
	c0.3,0,0.5-0.2,0.5-0.3v-4.1c0-0.2-0.1-0.6-0.1-0.8c-0.2-1.1-0.2-2,0-3.1c0-0.2,0.1-0.5,0.1-0.7v-2.7c0-0.2-0.2-0.3-0.5-0.3h-18.2
	c-0.3,0-0.5,0-0.8,0c-0.2,0-0.4,0-0.6,0v12.1C1678.2,338.9,1678.7,338.8,1679.3,338.8z"/>
<path class="st0" d="M1678.3,418.4c0.3,0,0.5,0,0.8,0h18.2c0.3,0,0.5-0.2,0.5-0.3v-2.7c0-0.2-0.1-0.5-0.1-0.7c-0.2-1-0.2-1.9,0-3.1
	c0-0.2,0.1-0.6,0.1-0.8v-4.1c0-0.2-0.2-0.3-0.5-0.3h-7.3c-0.1,0-0.3,0-0.4,0c-2.9-0.1-5.7-0.1-8.8,0c-0.2,0-0.3,0-0.5,0
	s-0.3,0-0.5,0s-0.3,0-0.5,0c-0.6,0-1.1,0-1.6,0v12.1C1677.8,418.4,1678.1,418.4,1678.3,418.4z"/>
<g>
	<g>
		<polygon class="st1" points="95.3,325.3 0,230 0,95.3 95.3,0 230,0 325.3,95.3 325.3,230 230,325.3 		"/>
	</g>
	<g>
		<polygon class="st1" points="106.5,298.2 27.1,218.8 27.1,106.5 106.5,27.1 218.8,27.1 298.2,106.5 298.2,218.8 218.8,298.2 		"/>
		<path class="st2" d="M221,303.6H104.3L21.7,221V104.3l82.6-82.6H221l82.6,82.6V221L221,303.6z M108.8,292.8h107.8l76.2-76.2V108.8
			l-76.2-76.2H108.8l-76.2,76.2v107.8L108.8,292.8z"/>
	</g>
	<g>
		<path class="st2" d="M222.3,144c-14.9-3.4-22.6,32.9-22.6,32.9s-31.3,15.6-28.2,52.6c0.1,0.8-0.5,1.6-1.4,1.6c0,0-0.1,0-0.1,0
			c-0.8,0-1.4-0.6-1.5-1.4c-2.8-33.6,20.4-50,27.2-54c0.6-0.4,1-1,1-1.7v-1.4c0-1.5-1.5-2.4-2.9-1.8C183,176,160.1,186,140.3,186
			c-1.5,0-3-0.1-4.5-0.2c-0.8-0.1-1.4-0.8-1.4-1.6c0.1-0.8,0.8-1.4,1.6-1.4c21.8,1.8,50.5-11.7,59.5-16.4c0.7-0.3,1.1-1,1.1-1.8
			v-2.9v-4.9V96.6c0-6.4-4-11.5-10.1-11.5c-6,0-10.1,5.2-10.1,11.5v60.3h-2.7V83.3c0-6.4-4-11.5-10.1-11.5s-10.9,5.2-10.9,11.5v73.6
			h-2.7V97.6c0-6.4-4-11.5-10.1-11.5c-6,0-10.9,5.2-10.9,11.5v59.3h-2.7v-44c0-6.4-4-11.5-10.1-11.5c-6,0-10.1,5.2-10.1,11.5v44v4.9
			v43.1c0,26.9,21.8,48.6,48.6,48.6H171c6.4,0,12.2-2.3,16.7-6.2c0,0,0,0,0.1,0c29.9-19.8,42-90.4,42-90.4S230.8,145.9,222.3,144z"
			/>
	</g>
</g>
</svg>
