<svg id="Layer_1" data-name="Layer 1" xmlns="http://www.w3.org/2000/svg" viewBox="0 0 32 32"><defs><style>.cls-1{fill:#e1306c;}</style></defs><path class="cls-1" d="M16,8.43c2.52,0,2.82,0,3.82.05a5.15,5.15,0,0,1,1.75.32,3,3,0,0,1,1.09.69,2.81,2.81,0,0,1,.7,1.06,5,5,0,0,1,.33,1.72c0,1,0,1.26,0,3.73s0,2.76,0,3.73a5,5,0,0,1-.33,1.72,2.81,2.81,0,0,1-.7,1.06,3,3,0,0,1-1.09.69,5.15,5.15,0,0,1-1.75.32c-1,0-1.3.05-3.82.05s-2.82,0-3.82-.05a5.15,5.15,0,0,1-1.75-.32,3,3,0,0,1-1.09-.69,2.81,2.81,0,0,1-.7-1.06,5,5,0,0,1-.33-1.72c0-1-.05-1.26-.05-3.73s0-2.76.05-3.73a5,5,0,0,1,.33-1.72,2.81,2.81,0,0,1,.7-1.06,3,3,0,0,1,1.09-.69,5.15,5.15,0,0,1,1.75-.32c1,0,1.3-.05,3.82-.05m0-1.67c-2.56,0-2.89,0-3.89.06a6.92,6.92,0,0,0-2.3.43A4.75,4.75,0,0,0,7.05,10a6.86,6.86,0,0,0-.44,2.24c0,1-.05,1.3-.05,3.81s0,2.82.05,3.81a6.86,6.86,0,0,0,.44,2.24,4.75,4.75,0,0,0,2.76,2.7,6.92,6.92,0,0,0,2.3.43c1,.05,1.33.06,3.89.06s2.89,0,3.89-.06a6.92,6.92,0,0,0,2.3-.43A4.75,4.75,0,0,0,25,22.05a6.86,6.86,0,0,0,.44-2.24c0-1,.05-1.3.05-3.81s0-2.82-.05-3.81A6.86,6.86,0,0,0,25,10a4.75,4.75,0,0,0-2.76-2.7,6.92,6.92,0,0,0-2.3-.43c-1-.05-1.33-.06-3.89-.06Z"/><path class="cls-1" d="M16,11.26A4.74,4.74,0,1,0,20.85,16,4.79,4.79,0,0,0,16,11.26Zm0,7.82A3.08,3.08,0,1,1,19.15,16,3.12,3.12,0,0,1,16,19.08Z"/><ellipse class="cls-1" cx="21.04" cy="11.07" rx="1.13" ry="1.11"/></svg>