<?xml version="1.0" encoding="utf-8"?>
<!-- Generator: Adobe Illustrator 26.0.3, SVG Export Plug-In . SVG Version: 6.00 Build 0)  -->
<svg version="1.1" id="Layer_1" xmlns="http://www.w3.org/2000/svg" xmlns:xlink="http://www.w3.org/1999/xlink" x="0px" y="0px"
	 viewBox="0 0 324.4 324.4" style="enable-background:new 0 0 324.4 324.4;" xml:space="preserve">
<style type="text/css">
	.st0{fill:#F0DB4F;}
	.st1{fill:#323330;}
</style>
<path class="st0" d="M2.2,2.2h320v320H2.2V2.2z"/>
<path class="st1" d="M296,245.9c-2.3-14.6-11.9-26.9-40.1-38.3c-9.8-4.5-20.7-7.7-24-15.1c-1.2-4.3-1.3-6.8-0.6-9.4
	c2.1-8.5,12.2-11.1,20.3-8.7c5.2,1.7,10.1,5.7,13,12.1c13.8-8.9,13.8-8.9,23.4-15c-3.5-5.5-5.4-8-7.7-10.3
	c-8.3-9.3-19.6-14.1-37.7-13.7c-3.1,0.4-6.3,0.8-9.4,1.2c-9,2.3-17.6,7-22.7,13.4c-15.1,17.2-10.8,47.3,7.6,59.7
	c18.2,13.6,44.8,16.7,48.2,29.5c3.3,15.6-11.5,20.7-26.2,18.9c-10.8-2.3-16.9-7.8-23.4-17.8c-12,6.9-12,6.9-24.3,14
	c2.9,6.4,6,9.3,10.9,14.8c23.2,23.5,81.2,22.4,91.6-13.2C295.5,266.6,298.3,258.5,296,245.9z M176.2,149.3h-29.9
	c0,25.9-0.1,51.5-0.1,77.4c0,16.5,0.9,31.5-1.8,36.2c-4.4,9.1-15.7,8-20.9,6.2c-5.3-2.6-7.9-6.3-11-11.5c-0.9-1.5-1.5-2.6-1.7-2.7
	c-8.1,5-16.2,9.9-24.3,14.9c4,8.3,10,15.5,17.6,20.2c11.4,6.8,26.7,8.9,42.8,5.3c10.4-3,19.4-9.3,24.2-18.9
	c6.8-12.6,5.4-27.8,5.3-44.6C176.3,204.3,176.2,176.8,176.2,149.3L176.2,149.3z"/>
</svg>
