<svg id="Layer_1" data-name="Layer 1" xmlns="http://www.w3.org/2000/svg" viewBox="0 0 32 32"><defs><style>.cls-1{fill:#1076a8;}</style></defs><path class="cls-1" d="M17,14.53c.27-.29.49-.59.77-.85a4.25,4.25,0,0,1,3-1.16,7.16,7.16,0,0,1,1.9.22,3.69,3.69,0,0,1,2.64,2.71,11.3,11.3,0,0,1,.35,3.11c0,2.21,0,4.42,0,6.63,0,.21-.06.26-.27.26H21.93c-.21,0-.25-.06-.25-.25q0-3.15,0-6.31a5.17,5.17,0,0,0-.19-1.56,1.78,1.78,0,0,0-2-1.37,2.15,2.15,0,0,0-2.28,2.11,8.22,8.22,0,0,0-.06,1q0,3.06,0,6.13c0,.2-.06.26-.27.26H13.41c-.19,0-.25-.05-.25-.23q0-6.07,0-12.15c0-.2.07-.24.26-.24h3.34c.21,0,.26.06.26.25C17,13.56,17,14.05,17,14.53Z"/><path class="cls-1" d="M10.64,19.16c0,2,0,4,0,6,0,.22-.05.28-.29.28H6.86c-.19,0-.24,0-.24-.23V13.05c0-.16,0-.22.22-.22h3.54c.23,0,.26.08.26.27C10.63,15.12,10.64,17.14,10.64,19.16Z"/><path class="cls-1" d="M11,8.81A2.33,2.33,0,1,1,8.64,6.55,2.31,2.31,0,0,1,11,8.81Z"/></svg>