<svg id="Layer_1" data-name="Layer 1" xmlns="http://www.w3.org/2000/svg" viewBox="0 0 32 32"><defs><style>.cls-1{fill:#43abe1;fill-rule:evenodd;}</style></defs><path class="cls-1" d="M16,6.76c-5.32,0-9.44,3.81-9.44,9a8.66,8.66,0,0,0,3,6.63.75.75,0,0,1,.26.53l.05,1.64a.75.75,0,0,0,1.06.65l1.87-.8a.75.75,0,0,1,.51,0,10.53,10.53,0,0,0,2.73.35c5.32,0,9.44-3.81,9.44-9S21.32,6.76,16,6.76Zm5.67,6.9L18.9,18a1.43,1.43,0,0,1-2,.37l-2.21-1.62a.59.59,0,0,0-.68,0l-3,2.22a.45.45,0,0,1-.65-.59L13.1,14a1.43,1.43,0,0,1,2.05-.37l2.21,1.62a.59.59,0,0,0,.68,0l3-2.22A.45.45,0,0,1,21.67,13.66Z"/></svg>