<?xml version="1.0" encoding="utf-8"?>
<!-- Generator: Adobe Illustrator 26.0.3, SVG Export Plug-In . SVG Version: 6.00 Build 0)  -->
<svg version="1.1" id="Layer_1" xmlns="http://www.w3.org/2000/svg" xmlns:xlink="http://www.w3.org/1999/xlink" x="0px" y="0px"
	 viewBox="0 0 842.5 775.1" style="enable-background:new 0 0 842.5 775.1;" xml:space="preserve">
<style type="text/css">
	.st0{fill:#61DAFB;}
</style>
<g>
	<path class="st0" d="M811,387.6c0-51.6-64.7-100.6-163.8-130.9c22.9-101.1,12.7-181.5-32.1-207.2c-10.3-6-22.4-8.9-35.6-8.9V76
		c7.3,0,13.2,1.4,18.1,4.1c21.6,12.4,31,59.6,23.7,120.3c-1.7,14.9-4.6,30.7-8.1,46.7c-31.1-7.6-65.1-13.5-100.9-17.3
		c-21.5-29.4-43.7-56.1-66.1-79.4c51.8-48.1,100.4-74.5,133.5-74.5V40.4c-43.7,0-100.9,31.1-158.7,85.2
		c-57.8-53.7-115-84.5-158.7-84.5v35.4c32.9,0,81.7,26.2,133.5,74c-22.2,23.4-44.5,49.9-65.6,79.3c-35.9,3.8-69.9,9.7-101.1,17.5
		c-3.7-15.9-6.4-31.3-8.3-46.1c-7.5-60.7,1.7-107.9,23.2-120.4c4.8-2.9,11-4.1,18.3-4.1V41.2c-13.3,0-25.4,2.9-35.9,8.9
		c-44.7,25.7-54.7,106-31.6,206.7C95.8,287.4,31.5,336.2,31.5,387.6c0,51.6,64.7,100.6,163.8,130.9
		c-22.9,101.1-12.7,181.5,32.1,207.2c10.3,6,22.4,8.9,35.8,8.9c43.7,0,100.9-31.1,158.7-85.2c57.8,53.7,115,84.5,158.7,84.5
		c13.3,0,25.4-2.9,35.9-8.9c44.7-25.7,54.7-106,31.6-206.7C746.7,488.1,811,439.1,811,387.6L811,387.6z M604.1,281.6
		c-5.9,20.5-13.2,41.6-21.5,62.8c-6.5-12.7-13.3-25.4-20.8-38.1c-7.3-12.7-15.1-25.1-22.9-37.2C561.6,272.4,583.3,276.6,604.1,281.6
		L604.1,281.6z M531.4,450.9c-12.4,21.5-25.1,41.8-38.3,60.7c-23.7,2.1-47.7,3.2-71.8,3.2c-24,0-48-1.1-71.5-3
		c-13.2-18.9-26.1-39.1-38.5-60.4c-12.1-20.8-23-41.9-33.1-63.2c9.9-21.3,21-42.6,32.9-63.4c12.4-21.5,25.1-41.8,38.3-60.7
		c23.7-2.1,47.7-3.2,71.8-3.2c24,0,48,1.1,71.5,3c13.2,18.9,26.1,39.1,38.5,60.4c12.1,20.8,23,41.9,33.1,63.2
		C554.2,408.8,543.3,430.1,531.4,450.9L531.4,450.9z M582.7,430.2c8.6,21.3,15.9,42.6,21.9,63.2c-20.8,5.1-42.7,9.4-65.5,12.7
		c7.8-12.2,15.6-24.8,22.9-37.7C569.3,455.8,576.2,442.9,582.7,430.2L582.7,430.2z M421.6,599.8c-14.8-15.3-29.6-32.3-44.2-50.8
		c14.3,0.6,28.9,1.1,43.7,1.1c14.9,0,29.7-0.3,44.2-1.1C451,567.5,436.2,584.5,421.6,599.8z M303.3,506.2
		c-22.6-3.3-44.3-7.5-65.1-12.6c5.9-20.5,13.2-41.6,21.5-62.8c6.5,12.7,13.3,25.4,20.8,38.1C287.9,481.7,295.6,494.1,303.3,506.2z
		 M420.8,175.5c14.8,15.3,29.6,32.3,44.2,50.8c-14.3-0.6-28.9-1.1-43.7-1.1c-14.9,0-29.7,0.3-44.2,1.1
		C391.4,207.8,406.2,190.8,420.8,175.5z M303.2,269.1c-7.8,12.2-15.6,24.8-22.9,37.7c-7.3,12.7-14.1,25.4-20.7,38.1
		c-8.6-21.3-15.9-42.6-21.9-63.2C258.5,276.7,280.5,272.4,303.2,269.1L303.2,269.1z M159.4,468c-56.3-24-92.6-55.5-92.6-80.4
		c0-24.9,36.4-56.6,92.6-80.4c13.7-5.9,28.6-11.1,44-16c9.1,31.1,21,63.6,35.8,96.8c-14.6,33.1-26.4,65.3-35.3,96.3
		C188.1,479.3,173.2,473.9,159.4,468L159.4,468z M244.9,695.1c-21.6-12.4-31-59.6-23.7-120.3c1.7-14.9,4.6-30.7,8.1-46.7
		c31.1,7.6,65.1,13.5,100.9,17.3c21.5,29.4,43.7,56.1,66.1,79.4c-51.8,48.1-100.4,74.5-133.5,74.5
		C255.7,699.2,249.6,697.8,244.9,695.1L244.9,695.1z M621.8,574c7.5,60.7-1.7,107.9-23.2,120.4c-4.8,2.9-11,4.1-18.3,4.1
		c-32.9,0-81.7-26.2-133.5-74c22.2-23.4,44.5-49.9,65.6-79.3c35.9-3.8,69.9-9.7,101.1-17.5C617.2,543.8,620,559.2,621.8,574z
		 M683,468c-13.7,5.9-28.6,11.1-44,16c-9.1-31.1-21-63.6-35.8-96.8c14.6-33.1,26.4-65.3,35.3-96.3c15.7,4.9,30.7,10.3,44.7,16.2
		c56.3,24,92.6,55.5,92.6,80.4C775.6,412.6,739.2,444.2,683,468L683,468z"/>
	<circle class="st0" cx="421.1" cy="387.6" r="72.6"/>
</g>
</svg>
