<?xml version="1.0" encoding="utf-8"?>
<!-- Generator: Adobe Illustrator 26.0.0, SVG Export Plug-In . SVG Version: 6.00 Build 0)  -->
<svg version="1.1" id="Layer_1" xmlns="http://www.w3.org/2000/svg" xmlns:xlink="http://www.w3.org/1999/xlink" x="0px" y="0px"
	 viewBox="0 0 128 124.4" style="enable-background:new 0 0 128 124.4;" xml:space="preserve">
<style type="text/css">
	.st0{fill:url(#SVGID_1_);}
	.st1{fill:url(#SVGID_00000032640012331976073770000012038304963930372501_);}
	.st2{fill:url(#SVGID_00000148633004902612364030000005621218206350454159_);}
	.st3{fill:url(#SVGID_00000005242995631389378890000015051263944723123630_);}
	.st4{fill:url(#SVGID_00000163781029989177106850000000282841162733960067_);}
	.st5{fill:url(#SVGID_00000138555633389990593880000000627330865660524951_);}
</style>
<g>
	<g>
		<linearGradient id="SVGID_1_" gradientUnits="userSpaceOnUse" x1="6.9288" y1="1.0697" x2="117.486" y2="111.6268">
			<stop  offset="0" style="stop-color:#363896"/>
			<stop  offset="1" style="stop-color:#D3489A"/>
		</linearGradient>
		<path class="st0" d="M95.6,9.5c7.1,0,12.9,5.7,12.9,12.9v23.8c0,1,0.8,1.7,1.7,1.7c1,0,1.8-0.7,1.8-1.7V22.3
			c0-9-7.4-16.4-16.4-16.4H22.8c-9,0-16.4,7.4-16.4,16.4v68.1c0,1,0.8,1.8,1.7,1.8c1,0,1.8-0.8,1.8-1.8V22.3
			c0-7.1,5.8-12.9,12.9-12.9H95.6z"/>
	</g>
	<g>
		
			<linearGradient id="SVGID_00000112609719727114283540000000686564384151782303_" gradientUnits="userSpaceOnUse" x1="3.216" y1="4.7826" x2="113.7731" y2="115.3397">
			<stop  offset="0" style="stop-color:#363896"/>
			<stop  offset="1" style="stop-color:#D3489A"/>
		</linearGradient>
		<path style="fill:url(#SVGID_00000112609719727114283540000000686564384151782303_);" d="M122.6,80.3c0-3.6-1.6-6.3-3.7-7.8
			c1.6-1.7,2.9-4.5,2.9-8.2c0-5.5-4.3-10.2-9.3-10.2H85.9c0.8-3.5,1.7-9.4,1.1-16.1c-1-11.3-6.6-19.4-13.6-19.6
			c-6.3-0.3-8.9,1.2-9.1,1.3c-0.6,0.4-0.9,1.2-0.8,1.9c0.8,3.8,2.5,14.4,1.4,17.9c-2.1,6.6-7.3,13-11.9,18.6
			c-4.6,5.7-8.3,10.2-8.3,14.1V109c0,1,0.8,1.8,1.7,1.8c1,0,1.8-0.8,1.8-1.8V72.1c0-2.7,3.6-7.2,7.5-11.9
			c4.8-5.9,10.2-12.5,12.5-19.8c1.4-4.3-0.3-14.3-1-18.2c1.1-0.3,3.1-0.6,6.1-0.5c5.1,0.2,9.5,7.2,10.3,16.5
			c0.7,7.9-0.8,14.5-1.5,17c-0.2,0.5,0,1.1,0.3,1.6c0.3,0.4,0.8,0.7,1.4,0.7h29c2.7,0,5.8,2.9,5.8,6.7c0,4.9-2.8,6.7-3.6,6.7
			c-1,0-1.7,0.8-1.7,1.8c0,0.9,0.8,1.7,1.7,1.7c1.7,0,4.3,1.9,4.3,5.8c0,2.5-1.1,4.7-3.1,6.1c-0.4,0.3-0.7,0.8-0.7,1.3
			c0,0.5,0.1,1,0.5,1.4c1.4,1.4,2.1,3.3,2.1,5.2c0,3.6-2.6,6.7-6.1,7.5c-0.6,0.1-1,0.5-1.3,1c-0.2,0.5-0.2,1.1,0.1,1.6
			c0.6,1.1,1,2.5,1,3.7c0,4-3,7.3-7,7.6c-0.1,0-0.2,0-0.3,0h-5.7c-1,0-1.7,0.8-1.7,1.8c0,0.9,0.8,1.7,1.7,1.7h5.7
			c0.3,0,0.5,0,0.8-0.1c5.7-0.5,10.1-5.3,10.1-11.1c0-1.2-0.2-2.4-0.6-3.5c4.1-1.7,6.8-5.8,6.8-10.3c0-2.2-0.7-4.4-1.9-6.2
			C121.4,86,122.6,83.2,122.6,80.3z"/>
	</g>
	<g>
		
			<linearGradient id="SVGID_00000143601278785636520000000014090469067488943781_" gradientUnits="userSpaceOnUse" x1="-27.7088" y1="35.7073" x2="82.8484" y2="146.2645">
			<stop  offset="0" style="stop-color:#363896"/>
			<stop  offset="1" style="stop-color:#D3489A"/>
		</linearGradient>
		<path style="fill:url(#SVGID_00000143601278785636520000000014090469067488943781_);" d="M32.2,68.3h-9.8c-3,0-5.4,2.5-5.4,5.4
			v35.6c0,0.9,0.8,1.7,1.8,1.7c1,0,1.7-0.8,1.7-1.7V73.7c0-1,0.9-1.9,1.9-1.9h9.8c1,0,1.9,0.9,1.9,1.9v40.1c0,1-0.9,1.9-1.9,1.9
			h-4.9c-1,0-1.8,0.8-1.8,1.8c0,0.9,0.8,1.7,1.8,1.7h4.9c3,0,5.4-2.4,5.4-5.4V73.7C37.6,70.7,35.2,68.3,32.2,68.3z"/>
	</g>
	<g>
		
			<linearGradient id="SVGID_00000058588832491972439700000014719101201378367365_" gradientUnits="userSpaceOnUse" x1="-36.964" y1="44.9625" x2="73.5931" y2="155.5197">
			<stop  offset="0" style="stop-color:#363896"/>
			<stop  offset="1" style="stop-color:#D3489A"/>
		</linearGradient>
		<path style="fill:url(#SVGID_00000058588832491972439700000014719101201378367365_);" d="M27.3,111.3c1.2,0,2.1-0.9,2.1-2.1
			c0-1.2-0.9-2.1-2.1-2.1c-1.2,0-2.1,0.9-2.1,2.1C25.2,110.4,26.1,111.3,27.3,111.3z"/>
	</g>
	<g>
		
			<linearGradient id="SVGID_00000031886357409125108830000005426298303847778700_" gradientUnits="userSpaceOnUse" x1="-18.9762" y1="26.9747" x2="91.581" y2="137.5318">
			<stop  offset="0" style="stop-color:#363896"/>
			<stop  offset="1" style="stop-color:#D3489A"/>
		</linearGradient>
		<path style="fill:url(#SVGID_00000031886357409125108830000005426298303847778700_);" d="M85.5,115.7H57.5c-1,0-1.8,0.8-1.8,1.8
			c0,0.9,0.8,1.7,1.8,1.7h28.1c1,0,1.8-0.8,1.8-1.7C87.3,116.5,86.5,115.7,85.5,115.7z"/>
	</g>
	<g>
		
			<linearGradient id="SVGID_00000001626684371996620550000003419572536801468820_" gradientUnits="userSpaceOnUse" x1="0.518" y1="7.4806" x2="111.0751" y2="118.0377">
			<stop  offset="0" style="stop-color:#363896"/>
			<stop  offset="1" style="stop-color:#D3489A"/>
		</linearGradient>
		<path style="fill:url(#SVGID_00000001626684371996620550000003419572536801468820_);" d="M94.7,70.7c-0.9-0.5-1.9-0.2-2.4,0.6
			l-4.3,7.4c-2.9-2.3-6.6-3.8-10.6-3.8c-9.2,0-16.7,7.5-16.7,16.7c0,9.2,7.5,16.7,16.7,16.7s16.7-7.5,16.7-16.7
			c0-3.9-1.4-7.5-3.6-10.3l4.8-8.2C95.8,72.3,95.5,71.2,94.7,70.7z M90.6,91.7c0,7.3-5.9,13.2-13.2,13.2c-7.3,0-13.2-5.9-13.2-13.2
			c0-7.3,5.9-13.2,13.2-13.2c3.3,0,6.4,1.3,8.8,3.3l-7.3,12.5L73,85.1c-0.5-0.8-1.6-1-2.4-0.5c-0.8,0.5-1.1,1.6-0.6,2.4l7.3,11.7
			c0.3,0.5,0.9,0.8,1.5,0.8h0c0.6,0,1.2-0.3,1.5-0.8l8.2-14C89.8,86.7,90.6,89.1,90.6,91.7z"/>
	</g>
</g>
</svg>
