<?xml version="1.0" encoding="utf-8"?>
<!-- Generator: Adobe Illustrator 26.1.0, SVG Export Plug-In . SVG Version: 6.00 Build 0)  -->
<svg version="1.1" id="Layer_1" xmlns="http://www.w3.org/2000/svg" xmlns:xlink="http://www.w3.org/1999/xlink" x="0px" y="0px"
	 viewBox="0 0 128 124.4" style="enable-background:new 0 0 128 124.4;" xml:space="preserve">
<style type="text/css">
	.st0{fill:url(#SVGID_1_);}
	.st1{fill:url(#SVGID_00000129924470184028028130000004499601084002710947_);}
	.st2{fill:url(#SVGID_00000084499784931012072430000006495432353832247471_);}
	.st3{fill:url(#SVGID_00000121244059842610883500000000695462899902006177_);}
	.st4{fill:url(#SVGID_00000003804235498700188420000004723153590434105519_);}
</style>
<g>
	<linearGradient id="SVGID_1_" gradientUnits="userSpaceOnUse" x1="53.7903" y1="-40.0125" x2="164.3024" y2="70.4997">
		<stop  offset="0" style="stop-color:#363B94"/>
		<stop  offset="1" style="stop-color:#D3489A"/>
	</linearGradient>
	<path class="st0" d="M109.8,18.7c0.7,0,1.4-0.3,1.9-0.8c0.5-0.5,0.8-1.2,0.8-1.9c0-0.7-0.3-1.4-0.7-1.9c-0.5-0.6-1.2-0.9-2-0.9
		c-0.8,0-1.5,0.3-1.9,0.8c-0.5,0.5-0.8,1.2-0.8,1.9s0.3,1.4,0.8,1.9C108.4,18.4,109.1,18.7,109.8,18.7z"/>
	
		<linearGradient id="SVGID_00000074423601944992201700000017409931012553992093_" gradientUnits="userSpaceOnUse" x1="49.0388" y1="-35.261" x2="159.551" y2="75.2511">
		<stop  offset="0" style="stop-color:#363B94"/>
		<stop  offset="1" style="stop-color:#D3489A"/>
	</linearGradient>
	<circle style="fill:url(#SVGID_00000074423601944992201700000017409931012553992093_);" cx="100.3" cy="16" r="2.7"/>
	
		<linearGradient id="SVGID_00000080183949909831035410000001677589815692936628_" gradientUnits="userSpaceOnUse" x1="44.3405" y1="-30.5627" x2="154.8526" y2="79.9495">
		<stop  offset="0" style="stop-color:#363B94"/>
		<stop  offset="1" style="stop-color:#D3489A"/>
	</linearGradient>
	<path style="fill:url(#SVGID_00000080183949909831035410000001677589815692936628_);" d="M90.9,18.7c0.7,0,1.4-0.3,1.9-0.8
		c0.5-0.5,0.8-1.2,0.8-1.9c0-0.7-0.3-1.4-0.7-1.9c-0.5-0.6-1.2-0.9-2-0.9c-0.8,0-1.5,0.3-1.9,0.8c-0.5,0.5-0.8,1.2-0.8,1.9
		s0.3,1.4,0.8,1.9C89.5,18.4,90.2,18.7,90.9,18.7z"/>
	
		<linearGradient id="SVGID_00000025439446783555360050000005902418869801512588_" gradientUnits="userSpaceOnUse" x1="5.8657" y1="7.912" x2="116.3779" y2="118.4242">
		<stop  offset="0" style="stop-color:#363B94"/>
		<stop  offset="1" style="stop-color:#D3489A"/>
	</linearGradient>
	<path style="fill:url(#SVGID_00000025439446783555360050000005902418869801512588_);" d="M48.3,70L36,82.4v0.1l-6.4,6.4
		c-0.7,0.7-1,1.7-0.6,2.7c2.3,6.9,7.3,11.9,14.2,14.2c0.4,0.2,0.7,0.2,0.9,0.2c0.7,0,1.4-0.3,1.9-0.8l6.8-6.8l11.9-12l18.8,18.8
		c0.5,0.5,1.2,0.8,1.9,0.8c0.7,0,1.4-0.3,1.9-0.8l5.6-5.5l5.7-5.7l0-0.1c0.5-0.6,0.7-1.2,0.7-1.8c0-0.7-0.3-1.4-0.8-1.9L79.6,71.4
		L92,59c0.2-0.1,0.4-0.3,0.4-0.5c0,0,0.1-0.2,0.1-0.3l0.1-0.1L99,39.2c0.3-0.9,0.1-1.9-0.6-2.7l-0.1-0.1c-0.5-0.5-1.2-0.8-1.9-0.8
		c-0.3,0-0.6,0-1,0.1L77,42h-0.2l-0.2,0.1c-0.1,0.1-0.2,0.1-0.4,0.2c0,0-0.1,0.1-0.1,0.1H76l-0.2,0.2l-0.2,0.1v0.1L63.3,55.1
		L44.5,36.3c-0.5-0.5-1.2-0.8-1.9-0.8c-0.7,0-1.4,0.3-1.9,0.8l-5.6,5.6l-5.6,5.5c-0.5,0.5-0.8,1.3-0.8,2c0,0.7,0.3,1.4,0.8,1.8
		L48.3,70z M92.2,42.5l-0.7,2c-0.5-0.4-0.9-0.8-1.3-1.3L92.2,42.5z M38.1,90.1c0.3,0.5,0.6,0.9,1,1.4c0.1,0.2,0.2,0.3,0.3,0.4l0,0.1
		l0.1,0.1c1,1.4,2.3,2.5,3.2,3.2c0.2,0.2,0.4,0.4,0.7,0.5c0.5,0.4,0.9,0.7,1.5,1.1c0.1,0.1,0.2,0.2,0.4,0.4c0.2,0.1,0.4,0.3,0.7,0.4
		l-2.7,2.6c-4-1.7-6.9-4.6-8.7-8.7l2.7-2.7c0,0,0,0,0,0c0.1,0.2,0.2,0.4,0.4,0.7C37.8,89.7,37.9,89.9,38.1,90.1z M50,93.3
		c-0.1,0-0.2-0.1-0.3-0.1c-0.1,0-0.2-0.1-0.4-0.1c-0.2-0.1-0.3-0.2-0.4-0.2c-0.2-0.1-0.3-0.2-0.5-0.3c-0.2-0.2-0.5-0.3-0.7-0.4
		L47.5,92c-0.2-0.1-0.3-0.2-0.4-0.3c-0.1-0.1-0.2-0.2-0.3-0.2l35.7-35.7c0,0,0.2,0.2,0.2,0.2c0.5,0.4,1,0.7,1.6,1.1
		c0.1,0,0.1,0.1,0.1,0.1c0.1,0.1,0.2,0.1,0.3,0.2c0.2,0.2,0.5,0.3,0.7,0.4L50,93.3L50,93.3z M88.6,53.4L87,52.6
		c-0.2-0.1-0.3-0.2-0.5-0.4c-0.2-0.1-0.3-0.2-0.5-0.4l-0.1-0.1l-0.1,0c-0.1-0.1-0.2-0.2-0.4-0.3c-0.2-0.2-0.4-0.3-0.6-0.5
		c-0.2-0.2-0.4-0.4-0.7-0.6c-0.3-0.4-0.7-0.8-1.1-1.3L83,49c-0.1-0.1-0.2-0.2-0.2-0.2l0-0.1l-0.1-0.1c-0.3-0.4-0.4-0.6-0.6-0.9
		c-0.1-0.1-0.2-0.3-0.3-0.5c0-0.1-0.1-0.1-0.1-0.2c-0.2-0.3-0.3-0.6-0.5-0.9l3.5-1.2c1.2,2,2.9,3.7,4.9,4.9L88.6,53.4z M78.6,51.9
		c0.1,0.1,0.1,0.2,0.2,0.3L43.1,87.8c-0.2-0.2-0.3-0.4-0.4-0.7c-0.1-0.3-0.3-0.5-0.4-0.6c0,0-0.1-0.1-0.1-0.1
		c-0.1-0.2-0.2-0.4-0.3-0.6c-0.1-0.1-0.2-0.3-0.2-0.4c0-0.1-0.1-0.3-0.1-0.4c0-0.1-0.1-0.2-0.1-0.3l0,0l35.4-35.4
		c0.1,0.2,0.3,0.5,0.4,0.7c0.1,0.1,0.1,0.2,0.2,0.3c0,0,0.1,0.1,0.1,0.2C77.9,50.9,78.2,51.4,78.6,51.9z M73.6,80.3
		c-0.5,0.5-0.8,1.3-0.8,2c0,0.7,0.3,1.3,0.8,1.8c0.4,0.5,1.1,0.8,1.9,0.8c0.7,0,1.4-0.3,1.9-0.8l3.7-3.7l3.9,3.9l-3.7,3.8
		c-0.5,0.5-0.8,1.3-0.8,2c0,0.7,0.3,1.4,0.8,1.8c0.5,0.5,1.2,0.8,1.9,0.8c0.7,0,1.4-0.3,1.9-0.8l3.7-3.7l3.9,3.9l-7.3,7.3L68.5,82.6
		l7.3-7.3l1.5,1.4L73.6,80.3z M42.9,49.6c-0.5,0.5-0.8,1.3-0.8,2c0,0.7,0.3,1.3,0.8,1.8c0.4,0.5,1.1,0.8,1.9,0.8
		c0.7,0,1.4-0.3,1.9-0.8l3.6-3.7l3.9,3.9l-3.7,3.7c-0.5,0.5-0.8,1.2-0.8,1.9s0.3,1.4,0.8,1.9c0.5,0.5,1.2,0.8,1.9,0.8
		c0.7,0,1.4-0.3,1.9-0.8l3.7-3.7l1.5,1.5l-7.3,7.3L35.3,49.4l7.3-7.3l3.9,3.9L42.9,49.6z"/>
	
		<linearGradient id="SVGID_00000151544256198847803850000012085791084424837805_" gradientUnits="userSpaceOnUse" x1="7.8103" y1="5.9675" x2="118.3224" y2="116.4797">
		<stop  offset="0" style="stop-color:#363B94"/>
		<stop  offset="1" style="stop-color:#D3489A"/>
	</linearGradient>
	<path style="fill:url(#SVGID_00000151544256198847803850000012085791084424837805_);" d="M118.6,8.2c-2-2.1-4.8-3.2-7.7-3.2H17.1
		c-6,0-10.8,4.8-10.8,10.8v92.7c0,6,4.8,10.8,10.8,10.8h93.7c6,0,10.8-4.8,10.8-10.8V15.8C121.7,13,120.6,10.3,118.6,8.2z
		 M11.7,27.3h104.4v81.3c0,1.4-0.5,2.7-1.4,3.7c-1,1-2.3,1.6-3.8,1.6H17.1c-2.9,0-5.4-2.5-5.4-5.4V27.3z M17.1,10.5h93.7
		c2.9,0,5.4,2.5,5.4,5.4v6H11.8v-6C11.8,12.9,14.1,10.5,17.1,10.5z"/>
</g>
</svg>
