<?xml version="1.0" encoding="utf-8"?>
<!-- Generator: Adobe Illustrator 26.0.0, SVG Export Plug-In . SVG Version: 6.00 Build 0)  -->
<svg version="1.1" id="Layer_1" xmlns="http://www.w3.org/2000/svg" xmlns:xlink="http://www.w3.org/1999/xlink" x="0px" y="0px"
	 viewBox="0 0 128 124.4" style="enable-background:new 0 0 128 124.4;" xml:space="preserve">
<style type="text/css">
	.st0{fill:url(#SVGID_1_);}
	.st1{fill:url(#SVGID_00000041267131437152245530000011947055755682880672_);}
	.st2{fill:url(#SVGID_00000062193124171692223140000011510769709450235306_);}
</style>
<g>
	<g>
		<linearGradient id="SVGID_1_" gradientUnits="userSpaceOnUse" x1="17.5077" y1="6.6829" x2="111.829" y2="101.0042">
			<stop  offset="0" style="stop-color:#363B94"/>
			<stop  offset="1" style="stop-color:#D3489A"/>
		</linearGradient>
		<path class="st0" d="M110.2,65.8l2.6-2.6c12.4-12.4,12.4-32.6,0-45C100.6,6,81.1,5.4,68.1,16.4c-0.2,0.1-0.4,0.2-0.6,0.4l-1.4,1.4
			c0,0,0,0,0,0.1L64.4,20l-2.6-2.6c-12.9-12.9-33.7-12.9-46.5,0h0c-12.4,12.4-12.4,32.6,0,45l3.4,3.3l-0.9,0.9c-2,2-3,4.8-2.7,7.6
			c0.3,2.8,1.8,5.3,4.2,6.9c1.3,0.8,2.7,1.4,4.2,1.5c-3.2,3.3-3.7,8.3-1.3,12c1.6,2.4,4.1,3.9,6.9,4.1c0.8,0,1.6,0,2.5-0.1
			c-0.1,0.6-0.1,1.2-0.1,1.7c0.1,2.6,1.2,5,3.1,6.8c3.2,2.8,8,3,11.7,0.6c0.1,2,0.9,4.1,2.3,5.6c1.7,1.9,4.2,3,6.8,3.1
			c0.1,0,0.2,0,0.2,0c2.5,0,4.9-0.9,6.7-2.7l2.5-2.5c1.7,1.3,3.8,2,5.9,2c1.8,0,3.6-0.5,5.1-1.6c2.3-1.6,3.8-4.1,4.1-6.8
			c3.3,3.2,8.3,3.7,11.9,1.3c2.4-1.6,3.9-4.1,4.2-6.9c0.1-0.8,0.1-1.6-0.1-2.4c0.6,0.1,1.1,0.1,1.8,0.1c2.6,0,5-1.1,6.7-3.1
			c2.9-3.2,3.1-7.9,0.7-11.6c2.4-0.2,4.6-1.3,6.3-3.1c3.3-3.7,3.1-9.5-0.7-13.2L110.2,65.8z M110.3,20.6c11,11.1,11,29.1,0,40.1
			l-2.6,2.6L79.2,34.8l2-2c0.7-0.6,0.7-1.8,0-2.5c-0.7-0.7-1.8-0.7-2.5,0L63.1,45.9c-1.5,1.5-3.5,2.2-5.6,2
			c-2.1-0.2-3.9-1.3-5.1-3.1c-1.8-2.7-1.3-6.5,1.1-9l15.2-15.2C80.2,9.2,98.8,9.2,110.3,20.6z M21,78.3c-1.5-1-2.5-2.6-2.6-4.3
			c-0.2-1.8,0.4-3.5,1.7-4.8l1-0.9l8.3,8.4l-0.8,0.8C26.5,79.5,23.3,79.8,21,78.3z M34.1,93.7c-1.3,1.2-3,1.8-4.8,1.7
			c-1.8-0.2-3.3-1.1-4.3-2.6c-1.5-2.3-1.1-5.6,1-7.6l5.1-5.2c0,0,0.1,0,0.1-0.1l0.8-0.7l8.3,8.4L34.1,93.7z M48.9,100.4l-3.8,3.8
			c-2.4,2.3-6.1,2.6-8.4,0.5c-1.2-1.1-1.9-2.6-2-4.2c0-1.7,0.6-3.2,1.7-4.3l6.2-6.2l8.3,8.4l-2,2C49,100.4,49,100.4,48.9,100.4z
			 M55.2,113.2c-1.6,0-3.1-0.7-4.2-1.9c-2-2.3-1.8-6,0.5-8.4l2.1-2.1l8.3,8.3l-2.4,2.3C58.4,112.6,56.9,113.2,55.2,113.2z M108.5,77
			c-1.1,1.3-2.6,1.9-4.2,2c-1.6,0-3.2-0.6-4.3-1.7c0-0.1,0-0.1,0-0.1L77,54.2c-0.7-0.7-1.8-0.7-2.5,0c-0.7,0.7-0.7,1.8,0,2.5
			l23,22.9l0,0l3.5,3.6c2.4,2.3,2.6,6.1,0.5,8.4c-1.1,1.2-2.6,1.9-4.2,1.9c-1.6,0.1-3.2-0.5-4.3-1.7c0-0.1,0-0.1,0-0.1l0,0
			L66.1,65.1c-0.7-0.7-1.8-0.7-2.5,0c-0.7,0.7-0.7,1.8,0,2.5l26.8,26.8h0c1.2,1.3,1.9,3,1.7,4.8c-0.2,1.8-1.1,3.3-2.6,4.3
			c-2.2,1.5-5.5,1.1-7.6-0.9L77,97.7c-0.1-0.1-0.1-0.2-0.2-0.2h0L55.3,75.9c-0.7-0.7-1.8-0.7-2.5,0c-0.3,0.3-0.5,0.8-0.5,1.3
			c0,0.4,0.2,0.9,0.5,1.2L74.4,100h0l0,0c1.2,1.3,1.9,3,1.7,4.8c-0.2,1.8-1.1,3.3-2.6,4.3c-2.2,1.5-5.5,1.1-7.6-0.9L17.7,59.9
			c-11-11-11-29,0-40h0c5.7-5.7,13.2-8.6,20.8-8.6c7.5,0,15,2.9,20.8,8.6l2.6,2.6L51,33.3c-3.7,3.7-4.3,9.4-1.5,13.5
			c1.8,2.6,4.6,4.3,7.7,4.6c0.3,0.1,0.7,0.1,1,0.1c2.8,0,5.4-1.1,7.4-3.1l11.1-11.1L108,68.6C110.3,70.9,110.6,74.7,108.5,77z"/>
	</g>
	<g>
		
			<linearGradient id="SVGID_00000072259356409370820690000005884670671422180488_" gradientUnits="userSpaceOnUse" x1="25.5417" y1="-1.3511" x2="119.863" y2="92.9702">
			<stop  offset="0" style="stop-color:#363B94"/>
			<stop  offset="1" style="stop-color:#D3489A"/>
		</linearGradient>
		<path style="fill:url(#SVGID_00000072259356409370820690000005884670671422180488_);" d="M50.6,23.7c0.7-0.7,0.7-1.8,0-2.5
			c-0.7-0.7-1.8-0.7-2.5,0c-0.7,0.7-0.7,1.8,0,2.5C48.8,24.4,50,24.4,50.6,23.7z"/>
	</g>
	<g>
		
			<linearGradient id="SVGID_00000141415861254510216550000017256151996464094391_" gradientUnits="userSpaceOnUse" x1="40.5839" y1="-16.3933" x2="134.9052" y2="77.928">
			<stop  offset="0" style="stop-color:#363B94"/>
			<stop  offset="1" style="stop-color:#D3489A"/>
		</linearGradient>
		<path style="fill:url(#SVGID_00000141415861254510216550000017256151996464094391_);" d="M109,52c0.7-0.7,0.7-1.8,0-2.5
			c-0.7-0.7-1.8-0.7-2.5,0c-0.7,0.7-0.7,1.8,0,2.5C107.2,52.7,108.3,52.7,109,52z"/>
	</g>
</g>
</svg>
