<?xml version="1.0" encoding="utf-8"?>
<!-- Generator: Adobe Illustrator 26.0.3, SVG Export Plug-In . SVG Version: 6.00 Build 0)  -->
<svg version="1.1" xmlns="http://www.w3.org/2000/svg" xmlns:xlink="http://www.w3.org/1999/xlink" x="0px" y="0px"
	 viewBox="0 0 1157.3 802.7" style="enable-background:new 0 0 1157.3 802.7;" xml:space="preserve">
<style type="text/css">
	.st0{fill:#EBF1FF;}
</style>
<g id="Layer_1">
</g>
<g id="Layer_2">
</g>
<g id="Layer_3">
	<path class="st0" d="M646.5,735.1c-33.1-21.8-61.7-51.4-85.6-87.6c-69-105.1-146.2-109.6-260.5-59.7
		C-59.5,744.9-28.4,180.9,208.3,229.9c40,8.3,88.9,23.6,127.8,3.4c47.9-24.9,62.2-90.7,90.2-132.6C476,26.3,608.3-1,659.8,88.9
		c27.8,48.6,19.2,109.7,39.7,161.6c31,78.5,116,83.6,190.4,77.8c83.8-6.6,190.1,11.2,227.8,97.3c34.8,79.4,7.1,172.3-41.7,239.4
		c-60,82.5-180.8,113.5-277.6,113.8C740.9,779.1,689.9,763.7,646.5,735.1z"/>
	<path class="st0" d="M1021.9,184.6c6.3,24.8-27.5,44.1-50.6,49.4c-60.1,13.7-127.2-12.4-162.3-63c-18.1-26-29.3-64.1-4.3-89.8
		c40.8-42,90.8,7.2,121.8,34.5c25.5,22.4,65,29.4,86.8,54C1018,174.8,1020.7,179.8,1021.9,184.6z"/>
</g>
<g id="Layer_4">
</g>
</svg>
