<?xml version="1.0" encoding="utf-8"?>
<!-- Generator: Adobe Illustrator 26.0.0, SVG Export Plug-In . SVG Version: 6.00 Build 0)  -->
<svg version="1.1" id="Layer_1" xmlns="http://www.w3.org/2000/svg" xmlns:xlink="http://www.w3.org/1999/xlink" x="0px" y="0px"
	 viewBox="0 0 128 124.4" style="enable-background:new 0 0 128 124.4;" xml:space="preserve">
<style type="text/css">
	.st0{fill:url(#SVGID_1_);}
	.st1{fill:url(#SVGID_00000149359209353605770780000009873828612841152907_);}
	.st2{fill:url(#SVGID_00000062913628744467010520000002963490388661682333_);}
	.st3{fill:url(#SVGID_00000119077895738725304460000009197839476578892471_);}
	.st4{fill:url(#SVGID_00000033352763680093099860000008751394826029538433_);}
	.st5{fill:url(#SVGID_00000176727897567964115640000008769871878603505853_);}
</style>
<g>
	<g>
		<linearGradient id="SVGID_1_" gradientUnits="userSpaceOnUse" x1="-18.5254" y1="52.1368" x2="77.5207" y2="148.1829">
			<stop  offset="0" style="stop-color:#363B94"/>
			<stop  offset="1" style="stop-color:#D3489A"/>
		</linearGradient>
		<path class="st0" d="M22.4,90.1c-0.5-0.8-1.6-1-2.4-0.5c-0.8,0.6-1,1.7-0.5,2.5c1.3,1.9,2.8,3.8,4.3,5.5c0.3,0.4,0.8,0.6,1.3,0.6
			c0.4,0,0.8-0.1,1.2-0.4c0.7-0.7,0.8-1.8,0.2-2.5C25,93.6,23.7,91.9,22.4,90.1z"/>
	</g>
	<g>
		
			<linearGradient id="SVGID_00000183238870483517956660000016116902614719429559_" gradientUnits="userSpaceOnUse" x1="19.6344" y1="13.977" x2="115.6805" y2="110.0231">
			<stop  offset="0" style="stop-color:#363B94"/>
			<stop  offset="1" style="stop-color:#D3489A"/>
		</linearGradient>
		<path style="fill:url(#SVGID_00000183238870483517956660000016116902614719429559_);" d="M119.1,58.7c0-0.8-0.1-1.6-0.2-2.5
			c-0.1-1-0.9-1.7-1.9-1.6c-1,0.1-1.7,0.9-1.6,1.9c0.1,0.8,0.1,1.5,0.2,2.3c0.7,13.6-4,26.7-13.2,36.8c-9.2,10.1-21.7,16-35.3,16.6
			c-0.8,0.1-1.6,0.1-2.3,0.1c-1,0-1.8,0.8-1.7,1.8c0,0.9,0.8,1.7,1.7,1.7l0,0c0.8,0,1.7,0,2.5-0.1c14.6-0.7,28-7,37.8-17.8
			C114.8,87.2,119.8,73.3,119.1,58.7z"/>
	</g>
	<g>
		
			<linearGradient id="SVGID_00000174601922670746610730000006306199179188079770_" gradientUnits="userSpaceOnUse" x1="55.6301" y1="-22.0188" x2="151.6763" y2="74.0273">
			<stop  offset="0" style="stop-color:#363B94"/>
			<stop  offset="1" style="stop-color:#D3489A"/>
		</linearGradient>
		<path style="fill:url(#SVGID_00000174601922670746610730000006306199179188079770_);" d="M104.4,29.4c0.3,0.4,0.9,0.6,1.4,0.6
			c0.4,0,0.8-0.1,1.1-0.4c0.8-0.6,0.9-1.7,0.3-2.5c-2.8-3.5-6.1-6.7-9.6-9.4c-0.8-0.6-1.9-0.5-2.5,0.3c-0.6,0.8-0.4,1.9,0.3,2.5
			C98.8,23.1,101.8,26.1,104.4,29.4z"/>
	</g>
	<g>
		
			<linearGradient id="SVGID_00000134231247753306778550000011539111286931637907_" gradientUnits="userSpaceOnUse" x1="15.2782" y1="18.3331" x2="111.3244" y2="114.3792">
			<stop  offset="0" style="stop-color:#363B94"/>
			<stop  offset="1" style="stop-color:#D3489A"/>
		</linearGradient>
		<path style="fill:url(#SVGID_00000134231247753306778550000011539111286931637907_);" d="M11.7,60.9
			C11.8,60.9,11.8,60.9,11.7,60.9c1,0,1.8-0.7,1.8-1.7c0.9-22.4,16.6-41.8,38.2-47.4c0.9-0.3,1.5-1.2,1.3-2.1
			c-0.3-0.9-1.2-1.5-2.1-1.3c-23.2,6-40,26.7-40.9,50.6C10,60.1,10.8,60.9,11.7,60.9z"/>
	</g>
	<g>
		
			<linearGradient id="SVGID_00000099637739089133792310000013349101765374791082_" gradientUnits="userSpaceOnUse" x1="19.1507" y1="14.4606" x2="115.1968" y2="110.5068">
			<stop  offset="0" style="stop-color:#363B94"/>
			<stop  offset="1" style="stop-color:#D3489A"/>
		</linearGradient>
		<path style="fill:url(#SVGID_00000099637739089133792310000013349101765374791082_);" d="M69.5,42.3c0-0.1,0.1-0.1,0.1-0.1
			c1.3,0.2,2.4,0.4,3.6,0.4c2.9,0,5.6-0.7,7.9-2.1c4.7-3,7.9-8.8,9.6-17.3c1.7-8.6,1.2-16.9,1.2-17.2C91.7,5,91,4.3,90.1,4.2
			c-0.7-0.1-17.2-1-27.8,4.8c-7,3.8-9.9,9.8-8.5,17.5h-0.1c-3.1,2.1-46.9,33.1-44.7,59c0,0.8,0.7,1.5,1.6,1.6
			c0.6,0.1,1.3,0.1,1.9,0.1C38,87.1,67.4,45.3,69.5,42.3z M64,12.1c7.9-4.3,20-4.5,24.3-4.4c0.1,2.8,0,8.7-1.2,14.7
			c-1.5,7.6-4.2,12.6-8,15c-2.5,1.6-5.5,2-9.1,1.4C69.3,36,66,32,62.6,29.1c0.8-2.9,4.3-11.7,18.6-14.3c0.9-0.2,1.6-1.1,1.4-2
			c-0.2-1-1.1-1.6-2-1.5C66,14,61.1,22.6,59.6,27c-0.8-0.5-1.6-0.9-2.3-1.1C56.1,19.7,58.3,15.1,64,12.1z M55.8,29.3
			c0,0,0.1,0,0.1-0.1c0.8,0.1,3.2,1.3,6.4,4.5c3.2,3.2,4.4,5.6,4.5,6.4c0,0-0.1,0.1-0.1,0.1c-0.1,0.1-1.9,2.7-4.9,6.6
			c-0.1-0.2-0.2-0.5-0.4-0.7c-1.1-1.9-2.9-4.2-5.1-6.4c-2.2-2.1-4.4-4-6.4-5.1c-0.3-0.1-0.5-0.3-0.7-0.4
			C53.1,31.2,55.7,29.4,55.8,29.3z M12.4,83.6C12.4,83.6,12.4,83.6,12.4,83.6c-0.1-16.8,20.7-36.3,33.5-46.8
			c0.8-0.1,3.9,1.3,7.9,5.3c4,4,5.4,7.1,5.4,7.9C48.7,62.9,29.1,83.6,12.4,83.6z"/>
	</g>
	<g>
		
			<linearGradient id="SVGID_00000169552666287064173640000003614335589501818027_" gradientUnits="userSpaceOnUse" x1="19.1658" y1="14.4456" x2="115.2119" y2="110.4917">
			<stop  offset="0" style="stop-color:#363B94"/>
			<stop  offset="1" style="stop-color:#D3489A"/>
		</linearGradient>
		<path style="fill:url(#SVGID_00000169552666287064173640000003614335589501818027_);" d="M108.9,60.3c0.1-0.1,0.1-0.1,0.1-0.2
			c0.1-0.1,0.1-0.2,0.2-0.3c0-0.1,0-0.1,0.1-0.1l9.1-26.5c0.2-0.6,0.1-1.3-0.4-1.8c-0.5-0.5-1.2-0.6-1.8-0.4l-26.5,9.2
			c0,0-0.1,0-0.1,0c-0.2,0.1-0.3,0.1-0.4,0.3c0,0-0.1,0-0.1,0.1c0,0,0,0-0.1,0.1L39,90.5h0l0,0h0l-9.3,9.4c-0.5,0.5-0.7,1.2-0.4,1.8
			c3,9,9.5,15.6,18.5,18.5c0.2,0.1,0.4,0.1,0.6,0.1c0.4,0,0.9-0.2,1.2-0.5l9.4-9.4L108.9,60.3C108.8,60.4,108.8,60.3,108.9,60.3z
			 M105.7,56.6c-0.3-0.2-0.7-0.3-1-0.5c-0.5-0.2-1-0.5-1.6-0.8c-0.3-0.2-0.6-0.3-0.9-0.5c-0.6-0.4-1.1-0.7-1.6-1.1
			c-0.2-0.2-0.5-0.3-0.7-0.5c-0.7-0.6-1.4-1.2-2-1.8c0-0.1,0-0.1,0-0.1h0c-0.6-0.7-1.2-1.3-1.8-2c-0.2-0.2-0.3-0.5-0.5-0.7
			c-0.4-0.5-0.7-1-1.1-1.6c-0.2-0.3-0.3-0.6-0.5-0.9c-0.3-0.5-0.6-1-0.8-1.6c-0.2-0.3-0.3-0.7-0.4-1c-0.1-0.3-0.2-0.5-0.3-0.7
			L101,40c1.7,3.7,4.7,6.7,8.4,8.4l-3,8.5C106.2,56.8,106,56.7,105.7,56.6z M46.8,100c-0.2-0.3-0.5-0.5-0.7-0.8
			c-0.2-0.2-0.3-0.5-0.5-0.7c-0.4-0.5-0.8-1-1.1-1.6c-0.2-0.3-0.4-0.6-0.6-0.9c-0.3-0.5-0.5-1-0.8-1.6c-0.2-0.4-0.3-0.8-0.5-1.2
			c-0.2-0.4-0.3-0.7-0.4-1.1L89.5,45c0,0.2,0.1,0.3,0.2,0.4c0.1,0.3,0.3,0.6,0.4,0.9c0.3,0.6,0.7,1.3,1,1.9c0.2,0.3,0.4,0.6,0.6,0.9
			c0.4,0.6,0.8,1.2,1.2,1.8c0.2,0.3,0.4,0.5,0.5,0.8c0.3,0.3,0.6,0.6,0.8,0.9L46.8,100z M110.6,45c-2.7-1.4-4.9-3.6-6.2-6.3l9.5-3.2
			L110.6,45z M47.7,116.5c-7.1-2.6-12.3-7.7-14.9-14.8l6.7-6.7c0.1,0.2,0.1,0.3,0.2,0.4c0.1,0.3,0.3,0.6,0.4,0.9
			c0.3,0.7,0.6,1.3,1,1.9c0.2,0.3,0.4,0.6,0.6,0.9c0.4,0.6,0.8,1.2,1.2,1.7c0.2,0.3,0.4,0.5,0.6,0.8c1.3,1.6,2.7,3,4.3,4.3
			c0.3,0.2,0.5,0.4,0.8,0.6c0.5,0.4,1.2,0.8,1.7,1.2c0.3,0.2,0.6,0.4,0.9,0.6c0.6,0.4,1.3,0.7,1.9,1c0.3,0.2,0.6,0.3,0.9,0.5
			c0.1,0.1,0.2,0.1,0.3,0.2L47.7,116.5z M57.1,107.1c-0.4-0.2-0.7-0.3-1.1-0.5c-0.4-0.2-0.8-0.3-1.1-0.5c-0.5-0.2-1-0.5-1.6-0.8
			c-0.3-0.2-0.7-0.4-1-0.6c-0.6-0.3-1.1-0.7-1.6-1.1c-0.3-0.2-0.5-0.3-0.7-0.5c-0.3-0.2-0.5-0.4-0.8-0.7l47.5-47.4
			c0.3,0.3,0.7,0.6,1,0.8c0.2,0.2,0.5,0.4,0.8,0.6c0.6,0.4,1.2,0.8,1.8,1.2c0.3,0.2,0.6,0.4,0.9,0.6c0.6,0.4,1.3,0.7,1.9,1
			c0.3,0.2,0.6,0.3,0.9,0.5c0.1,0.1,0.2,0.1,0.4,0.2L57.1,107.1z"/>
	</g>
</g>
</svg>
