<?xml version="1.0" encoding="utf-8"?>
<!-- Generator: Adobe Illustrator 26.1.0, SVG Export Plug-In . SVG Version: 6.00 Build 0)  -->
<svg version="1.1" id="Layer_1" xmlns="http://www.w3.org/2000/svg" xmlns:xlink="http://www.w3.org/1999/xlink" x="0px" y="0px"
	 viewBox="0 0 128 124.4" style="enable-background:new 0 0 128 124.4;" xml:space="preserve">
<style type="text/css">
	.st0{fill:url(#SVGID_1_);}
	.st1{fill:url(#SVGID_00000094608594547278555190000005762801898223256201_);}
	.st2{fill:url(#SVGID_00000147936335475632657330000018071399591453236889_);}
</style>
<g>
	<linearGradient id="SVGID_1_" gradientUnits="userSpaceOnUse" x1="4.3451" y1="7.8031" x2="113.6137" y2="117.0718">
		<stop  offset="0" style="stop-color:#363B94"/>
		<stop  offset="1" style="stop-color:#D3489A"/>
	</linearGradient>
	<path class="st0" d="M105.2,68V38.8c0-7.6-6.2-13.7-13.8-13.7s-13.8,6.1-13.8,13.7v31.6c0,3.2-2.6,5.8-5.7,5.8
		c-3.1,0-5.8-2.7-5.8-5.8v-13c0-5.2-4.2-9.4-9.4-9.4c-5.2,0-9.4,4.2-9.4,9.4v34.2c0,6.2-5,11.2-11.2,11.2c-6.2,0-11.2-5-11.2-11.2
		v-5.4c0.9-0.6,1.7-1.4,2.3-2.5c1-1.8,1.7-4.1,2.2-7.2c1.1-5.9,1.2-20.1,1.3-26.8c0.1-3,0.1-5.5,0.1-6.8c0.2-2.8,0.3-4.9,0.3-5.8
		c2.3-1.8,3.9-4.1,4.5-6.7c1-3.9-0.3-8.6-3.8-13.8c-3-4.4-6.8-8-7.8-8.9c-0.5-0.5-1.1-0.7-1.8-0.7c-0.7,0-1.3,0.3-1.8,0.7
		c-1,0.9-9,8.2-11.3,16c-1.6,5.5-0.1,10.1,4.2,13.4c0,0.9,0.1,2.9,0.3,5.7l0,0.2c0.1,1.4,0.1,3.7,0.1,6.7c0.1,9.3,0.4,21.4,1.3,26.8
		c0.5,3.3,1.3,5.6,2.2,7.2c0.7,1.2,1.5,2.1,2.4,2.6v5.3c0,9,7.4,16.4,16.5,16.4s16.5-7.4,16.5-16.4V57.4c0-2.3,1.8-4.1,4.1-4.1
		c2.3,0,4.1,1.8,4.1,4.1v13c0,6.1,4.9,11.1,11,11.1s11-5,11-11.1V38.8c0-4.6,3.8-8.4,8.5-8.4c4.6,0,8.5,3.8,8.5,8.4V68
		c-8,1.3-14.2,8.4-14.2,16.6v16.1c0,9.3,7.5,16.8,16.8,16.8s16.8-7.5,16.8-16.8V84.6C119.3,76.4,113.3,69.3,105.2,68z M102.5,112.2
		c-6.3,0-11.5-5.2-11.5-11.5V90.5c3.5,2.1,7.5,3.2,11.5,3.2s8-1.1,11.5-3.2v10.2C114,107,108.8,112.2,102.5,112.2z M102.5,88.3
		c-4.3,0-8.3-1.5-11.5-4.3c0.3-6,5.4-10.9,11.5-10.9S113.7,77.9,114,84C110.8,86.7,106.8,88.3,102.5,88.3z M16.4,32.7
		c-2.4-2-3-4.4-2.1-7.7c1.4-4.8,5.9-9.7,8-11.9c2.1,2.2,3.8,4.2,5.2,6.2c2.6,4,3.7,7.3,3.1,9.7c-0.3,1.3-1.1,2.5-2.5,3.6
		c-1.4-0.6-3.4-0.8-5.9-0.8C19.8,31.9,17.9,32.2,16.4,32.7z M22.3,37.1c1.6,0,2.9,0.2,3.7,0.4c0,0.4-0.1,0.8-0.1,1.4
		c-0.3-0.1-0.6-0.1-0.9-0.1h-0.2c-0.4-0.1-0.8-0.1-1.1-0.1c-0.2,0-0.5,0-0.7-0.1c-0.2,0-0.4,0-0.6,0c-0.3,0-0.7,0-1.2,0.1h-0.4
		l-0.2,0l-0.2,0.1c0,0-0.1,0-0.1,0s-0.3,0-0.3,0l-0.2,0.1c-0.1,0-0.2,0-0.5,0c-0.2,0-0.3,0-0.5,0.1c0-0.2,0-0.4,0-0.6
		c0-0.4,0-0.7,0-0.9C19.5,37.3,20.7,37.1,22.3,37.1z M20.6,44h0.4l0.1,0c0.7-0.1,1.5-0.1,2.3-0.1c0.3,0.1,0.6,0.1,0.9,0.1
		c0,0,0.1,0,0.1,0c0.6,0.1,1,0.1,1.3,0.2c-0.1,1.4-0.1,3.2-0.1,5.3l-0.1,2.9c-0.2,8.3-0.4,18.5-1.1,23.2c-0.4,2.3-1,4.2-1.6,5.6
		c-0.1,0.2-0.3,0.4-0.3,0.5c-0.1-0.1-0.2-0.3-0.3-0.5c-0.7-1.1-1.2-3.1-1.6-5.6c-1.2-5.3-1.4-19.3-1.5-26c0-1.4,0-2.7-0.1-3.9
		c0-0.5,0-1,0-1.4C19.5,44.1,20,44.1,20.6,44z"/>
	
		<linearGradient id="SVGID_00000094609203507250974600000005427187059285504412_" gradientUnits="userSpaceOnUse" x1="16.9895" y1="-4.8413" x2="126.2581" y2="104.4273">
		<stop  offset="0" style="stop-color:#363B94"/>
		<stop  offset="1" style="stop-color:#D3489A"/>
	</linearGradient>
	<path style="fill:url(#SVGID_00000094609203507250974600000005427187059285504412_);" d="M102.5,73.8c-1.5,0-2.7,1.2-2.7,2.7v8.3
		l0,0.1c0.2,1.5,1.3,2.6,2.7,2.6c1.4,0,2.6-1.2,2.6-2.7v-8.3C105.1,75,103.9,73.8,102.5,73.8z"/>
	
		<linearGradient id="SVGID_00000133504010114337181850000006452392532172772783_" gradientUnits="userSpaceOnUse" x1="4.3027" y1="7.8454" x2="113.5714" y2="117.1141">
		<stop  offset="0" style="stop-color:#363B94"/>
		<stop  offset="1" style="stop-color:#D3489A"/>
	</linearGradient>
	<path style="fill:url(#SVGID_00000133504010114337181850000006452392532172772783_);" d="M22.7,16.6c-0.4-0.2-0.8-0.3-1.2-0.3
		c-1,0-1.9,0.5-2.3,1.4c-2.4,4.8-2.5,9.7-2.4,11.2c-0.1,0.7,0.2,1.3,0.6,1.8c0.5,0.5,1.1,0.8,1.9,0.8h0.1c1.5,0,2.6-1.2,2.6-2.9
		c0-0.8-0.1-4.8,1.9-8.6c0.3-0.6,0.4-1.3,0.2-2C23.8,17.5,23.4,16.9,22.7,16.6z"/>
</g>
</svg>
