<?xml version="1.0" encoding="utf-8"?>
<!-- Generator: Adobe Illustrator 26.1.0, SVG Export Plug-In . SVG Version: 6.00 Build 0)  -->
<svg version="1.1" id="Layer_1" xmlns="http://www.w3.org/2000/svg" xmlns:xlink="http://www.w3.org/1999/xlink" x="0px" y="0px"
	 viewBox="0 0 128 124.4" style="enable-background:new 0 0 128 124.4;" xml:space="preserve">
<style type="text/css">
	.st0{fill:url(#SVGID_1_);}
	.st1{fill:url(#SVGID_00000005232497265099686150000014238112514359732098_);}
	.st2{fill:url(#SVGID_00000168093257722735362720000005568045924624305078_);}
	.st3{fill:url(#SVGID_00000126318031438423692470000016190978120713923482_);}
	.st4{fill:url(#SVGID_00000160149457236121407540000017325533404260954292_);}
	.st5{fill:url(#SVGID_00000087387748647275080680000012591130371437225643_);}
	.st6{fill:url(#SVGID_00000127760106783374872230000000393744092900063664_);}
</style>
<g>
	<linearGradient id="SVGID_1_" gradientUnits="userSpaceOnUse" x1="4.1891" y1="9.1442" x2="116.0207" y2="120.9758">
		<stop  offset="0" style="stop-color:#363B94"/>
		<stop  offset="1" style="stop-color:#D3489A"/>
	</linearGradient>
	<path class="st0" d="M56.6,88.9c0.5,0.2,0.8,0.2,1.1,0.2c1.4,0,2.5-0.8,2.9-2l12.7-34c0.6-1.6-0.2-3.4-1.8-4
		c-0.3-0.1-0.7-0.2-1.1-0.2c-1.3,0-2.6,0.9-3,2.1L54.8,84.9c-0.3,0.8-0.4,1.6,0,2.4C55.1,88,55.7,88.6,56.6,88.9z"/>
	
		<linearGradient id="SVGID_00000078030070612948783560000002389960823846780049_" gradientUnits="userSpaceOnUse" x1="-5.5053" y1="18.8386" x2="106.3263" y2="130.6702">
		<stop  offset="0" style="stop-color:#363B94"/>
		<stop  offset="1" style="stop-color:#D3489A"/>
	</linearGradient>
	<path style="fill:url(#SVGID_00000078030070612948783560000002389960823846780049_);" d="M43.9,83.2c0.5,0.4,1.2,0.6,2,0.6
		c0.8,0,1.7-0.4,2.4-1.1c1.1-1.3,1-3.2-0.4-4.4L36.8,69L48,59.7c0.6-0.6,1-1.3,1.1-2.1c0.1-0.9-0.2-1.7-0.7-2.4
		c-0.6-0.7-1.5-1.1-2.4-1.1c-0.7,0-1.4,0.2-2,0.7L29.8,66.6c-0.7,0.6-1.2,1.5-1.2,2.5c0,0.8,0.4,1.7,1.2,2.5L43.9,83.2z"/>
	
		<linearGradient id="SVGID_00000139980198440416667150000001857964936662315185_" gradientUnits="userSpaceOnUse" x1="13.7922" y1="-0.4589" x2="125.6237" y2="111.3727">
		<stop  offset="0" style="stop-color:#363B94"/>
		<stop  offset="1" style="stop-color:#D3489A"/>
	</linearGradient>
	<path style="fill:url(#SVGID_00000139980198440416667150000001857964936662315185_);" d="M79.6,82.7c0.6,0.7,1.5,1.2,2.5,1.2
		c0.8,0,1.5-0.2,2-0.6l14.1-11.7c0.7-0.6,1.2-1.5,1.2-2.5c0-0.9-0.5-1.9-1.2-2.5L84.2,55c-0.5-0.5-1.3-0.8-2-0.8
		c-1,0-1.9,0.4-2.4,1.1c-1.1,1.3-1,3.3,0.4,4.5L91.2,69L80,78.4C78.7,79.5,78.6,81.4,79.6,82.7z"/>
	
		<linearGradient id="SVGID_00000000930124108903631960000001907080226198240699_" gradientUnits="userSpaceOnUse" x1="53.5681" y1="-40.2347" x2="165.3996" y2="71.5968">
		<stop  offset="0" style="stop-color:#363B94"/>
		<stop  offset="1" style="stop-color:#D3489A"/>
	</linearGradient>
	<path style="fill:url(#SVGID_00000000930124108903631960000001907080226198240699_);" d="M109.8,18.7c0.7,0,1.4-0.3,1.9-0.8
		c0.5-0.5,0.8-1.2,0.8-1.9c0-0.7-0.3-1.4-0.7-1.9c-0.5-0.6-1.2-0.9-2-0.9c-0.8,0-1.5,0.3-1.9,0.8c-0.5,0.5-0.8,1.2-0.8,1.9
		s0.3,1.4,0.8,1.9C108.4,18.4,109.1,18.7,109.8,18.7z"/>
	
		<linearGradient id="SVGID_00000077324393035663014830000002741771855048599970_" gradientUnits="userSpaceOnUse" x1="48.8166" y1="-35.4832" x2="160.6481" y2="76.3483">
		<stop  offset="0" style="stop-color:#363B94"/>
		<stop  offset="1" style="stop-color:#D3489A"/>
	</linearGradient>
	<circle style="fill:url(#SVGID_00000077324393035663014830000002741771855048599970_);" cx="100.3" cy="16" r="2.7"/>
	
		<linearGradient id="SVGID_00000134936461217966502370000009860082726675853963_" gradientUnits="userSpaceOnUse" x1="44.1182" y1="-30.7849" x2="155.9498" y2="81.0466">
		<stop  offset="0" style="stop-color:#363B94"/>
		<stop  offset="1" style="stop-color:#D3489A"/>
	</linearGradient>
	<path style="fill:url(#SVGID_00000134936461217966502370000009860082726675853963_);" d="M90.9,18.7c0.7,0,1.4-0.3,1.9-0.8
		c0.5-0.5,0.8-1.2,0.8-1.9c0-0.7-0.3-1.4-0.7-1.9c-0.5-0.6-1.2-0.9-2-0.9c-0.8,0-1.5,0.3-1.9,0.8c-0.5,0.5-0.8,1.2-0.8,1.9
		s0.3,1.4,0.8,1.9C89.5,18.4,90.2,18.7,90.9,18.7z"/>
	
		<linearGradient id="SVGID_00000091723968929399617430000013035394072013696663_" gradientUnits="userSpaceOnUse" x1="7.5881" y1="5.7453" x2="119.4196" y2="117.5768">
		<stop  offset="0" style="stop-color:#363B94"/>
		<stop  offset="1" style="stop-color:#D3489A"/>
	</linearGradient>
	<path style="fill:url(#SVGID_00000091723968929399617430000013035394072013696663_);" d="M118.6,8.2c-2-2.1-4.8-3.2-7.7-3.2H17.1
		c-6,0-10.8,4.8-10.8,10.8v92.7c0,6,4.8,10.8,10.8,10.8h93.7c6,0,10.8-4.8,10.8-10.8V15.8C121.7,13,120.6,10.3,118.6,8.2z
		 M11.7,27.3h104.4v81.3c0,1.4-0.5,2.7-1.4,3.7c-1,1-2.3,1.6-3.8,1.6H17.1c-2.9,0-5.4-2.5-5.4-5.4V27.3z M17.1,10.5h93.7
		c2.9,0,5.4,2.5,5.4,5.4v6H11.8v-6C11.8,12.9,14.1,10.5,17.1,10.5z"/>
</g>
</svg>
