<svg id="Layer_1" data-name="Layer 1" xmlns="http://www.w3.org/2000/svg" viewBox="0 0 32 32"><defs><style>.cls-1,.cls-2{fill:#2aade3;}.cls-2{fill-rule:evenodd;}</style></defs><polygon class="cls-1" points="24.93 19.32 24.93 19.32 24.93 19.32 24.93 19.32"/><path class="cls-2" d="M24.93,19.32h0v-.06c0-.05,0-.1,0-.14a1.1,1.1,0,0,0,0-.18v-.05a5.15,5.15,0,0,0-.61-1.74A8.05,8.05,0,0,0,24.35,16,8.25,8.25,0,0,0,16,7.9a8.7,8.7,0,0,0-.89,0l0,0h0l-.07,0-.05,0-.19-.1-.06,0,0,0h0l-.17-.08-.07,0-.12,0h0l-.08,0,0,0h0a4.38,4.38,0,0,0-.73-.21h0L13,7.21h0a4.73,4.73,0,0,0-.65,0,5.21,5.21,0,0,0-5.28,5.14c0,.15,0,.29,0,.44h0v0s0,.08,0,.12,0,.11,0,.16v0a5,5,0,0,0,.62,1.74A7.72,7.72,0,0,0,7.65,16,8.35,8.35,0,0,0,17,24.12h0l0,0,0,0,0,0,.32.16h0l.2.09.06,0,.21.08h0l.28.09h0l.19,0,.05,0,.18,0h.07l.17,0H19l.15,0h0l.47,0A5.21,5.21,0,0,0,25,19.69C25,19.57,24.94,19.44,24.93,19.32Zm-6.13.17a2.59,2.59,0,0,1-1.22.89,5.43,5.43,0,0,1-1.83.29,5.94,5.94,0,0,1-2.5-.46,1.32,1.32,0,0,1-.51-.39.8.8,0,0,1-.17-.53.7.7,0,0,1,.22-.55.81.81,0,0,1,.56-.19,1.42,1.42,0,0,1,.67.17l.6.27a2.32,2.32,0,0,0,.51.16,3.05,3.05,0,0,0,.67.07,1.78,1.78,0,0,0,1.12-.29.93.93,0,0,0,.37-.8.83.83,0,0,0-.23-.58,2.7,2.7,0,0,0-.7-.5c-.3-.15-.73-.35-1.29-.57a9.46,9.46,0,0,1-1.42-.72,2.66,2.66,0,0,1-.82-.85,2.31,2.31,0,0,1-.28-1.18,2,2,0,0,1,.51-1.42,3,3,0,0,1,1.32-.86,5.11,5.11,0,0,1,1.73-.29,7.46,7.46,0,0,1,1.16.09,4.46,4.46,0,0,1,.8.2,1.49,1.49,0,0,1,.62.39.79.79,0,0,1,.2.53.76.76,0,0,1-.21.55.67.67,0,0,1-.51.2,1,1,0,0,1-.38-.08,5.66,5.66,0,0,0-.9-.32,3.24,3.24,0,0,0-.87-.11,2.09,2.09,0,0,0-1.1.27.88.88,0,0,0-.43.8.82.82,0,0,0,.22.56,2.33,2.33,0,0,0,.61.43c.26.12.64.29,1.15.49l.16.07a8.19,8.19,0,0,1,1.42.71,2.78,2.78,0,0,1,.87.87A2.18,2.18,0,0,1,19.23,18,2.39,2.39,0,0,1,18.8,19.49Z"/></svg>