<?xml version="1.0" encoding="utf-8"?>
<!-- Generator: Adobe Illustrator 26.0.3, SVG Export Plug-In . SVG Version: 6.00 Build 0)  -->
<svg version="1.1" id="Layer_5" xmlns="http://www.w3.org/2000/svg" xmlns:xlink="http://www.w3.org/1999/xlink" x="0px" y="0px"
	 viewBox="0 0 15.7 289.4" style="enable-background:new 0 0 15.7 289.4;" xml:space="preserve">
<style type="text/css">
	.st0{fill:#EBEEFF;}
</style>
<circle class="st0" cx="7.9" cy="7.9" r="3.4"/>
<circle class="st0" cx="7.9" cy="20.3" r="3.4"/>
<circle class="st0" cx="7.9" cy="32.7" r="3.4"/>
<circle class="st0" cx="7.9" cy="45.2" r="3.4"/>
<circle class="st0" cx="7.9" cy="57.6" r="3.4"/>
<circle class="st0" cx="7.9" cy="70.1" r="3.4"/>
<circle class="st0" cx="7.9" cy="82.5" r="3.4"/>
<circle class="st0" cx="7.9" cy="94.9" r="3.4"/>
<circle class="st0" cx="7.9" cy="107.4" r="3.4"/>
<circle class="st0" cx="7.9" cy="119.8" r="3.4"/>
<circle class="st0" cx="7.9" cy="132.3" r="3.4"/>
<circle class="st0" cx="7.9" cy="144.7" r="3.4"/>
<circle class="st0" cx="7.9" cy="157.1" r="3.4"/>
<circle class="st0" cx="7.9" cy="169.6" r="3.4"/>
<circle class="st0" cx="7.9" cy="182" r="3.4"/>
<circle class="st0" cx="7.9" cy="194.5" r="3.4"/>
<circle class="st0" cx="7.9" cy="206.9" r="3.4"/>
<circle class="st0" cx="7.9" cy="219.4" r="3.4"/>
<circle class="st0" cx="7.9" cy="231.8" r="3.4"/>
<circle class="st0" cx="7.9" cy="244.2" r="3.4"/>
<circle class="st0" cx="7.9" cy="256.7" r="3.4"/>
<circle class="st0" cx="7.9" cy="269.1" r="3.4"/>
<circle class="st0" cx="7.9" cy="281.6" r="3.4"/>
</svg>
