<?xml version="1.0" encoding="utf-8"?>
<!-- Generator: Adobe Illustrator 26.0.3, SVG Export Plug-In . SVG Version: 6.00 Build 0)  -->
<svg version="1.1" id="Layer_5" xmlns="http://www.w3.org/2000/svg" xmlns:xlink="http://www.w3.org/1999/xlink" x="0px" y="0px"
	 viewBox="0 0 30 577.4" style="enable-background:new 0 0 30 577.4;" xml:space="preserve">
<style type="text/css">
	.st0{fill:#EBEEFF;}
</style>
<circle class="st0" cx="15" cy="15" r="6.9"/>
<circle class="st0" cx="15" cy="39.9" r="6.9"/>
<circle class="st0" cx="15" cy="64.8" r="6.9"/>
<circle class="st0" cx="15" cy="89.7" r="6.9"/>
<circle class="st0" cx="15" cy="114.5" r="6.9"/>
<circle class="st0" cx="15" cy="139.4" r="6.9"/>
<circle class="st0" cx="15" cy="164.3" r="6.9"/>
<circle class="st0" cx="15" cy="189.2" r="6.9"/>
<circle class="st0" cx="15" cy="214.1" r="6.9"/>
<circle class="st0" cx="15" cy="238.9" r="6.9"/>
<circle class="st0" cx="15" cy="263.8" r="6.9"/>
<circle class="st0" cx="15" cy="288.7" r="6.9"/>
<circle class="st0" cx="15" cy="313.6" r="6.9"/>
<circle class="st0" cx="15" cy="338.5" r="6.9"/>
<circle class="st0" cx="15" cy="363.4" r="6.9"/>
<circle class="st0" cx="15" cy="388.2" r="6.9"/>
<circle class="st0" cx="15" cy="413.1" r="6.9"/>
<circle class="st0" cx="15" cy="438" r="6.9"/>
<circle class="st0" cx="15" cy="462.9" r="6.9"/>
<circle class="st0" cx="15" cy="487.8" r="6.9"/>
<circle class="st0" cx="15" cy="512.6" r="6.9"/>
<circle class="st0" cx="15" cy="537.5" r="6.9"/>
<circle class="st0" cx="15" cy="562.4" r="6.9"/>
</svg>
