<?xml version="1.0" standalone="no"?>
<svg xmlns:xlink="http://www.w3.org/1999/xlink" id="wave" style="transform:rotate(0deg); transition: 0.3s" viewBox="0 0 1440 120" version="1.1" xmlns="http://www.w3.org/2000/svg"><defs><linearGradient id="sw-gradient-0" x1="0" x2="0" y1="1" y2="0"><stop stop-color="rgba(243, 247, 255, 1)" offset="0%"/><stop stop-color="rgba(243, 247, 255, 1)" offset="100%"/></linearGradient></defs><path style="transform:translate(0, 0px); opacity:1" fill="url(#sw-gradient-0)" d="M0,36L48,30C96,24,192,12,288,10C384,8,480,16,576,26C672,36,768,48,864,44C960,40,1056,20,1152,18C1248,16,1344,32,1440,46C1536,60,1632,72,1728,68C1824,64,1920,44,2016,30C2112,16,2208,8,2304,20C2400,32,2496,64,2592,74C2688,84,2784,72,2880,74C2976,76,3072,92,3168,88C3264,84,3360,60,3456,54C3552,48,3648,60,3744,60C3840,60,3936,48,4032,38C4128,28,4224,20,4320,30C4416,40,4512,68,4608,68C4704,68,4800,40,4896,26C4992,12,5088,12,5184,22C5280,32,5376,52,5472,58C5568,64,5664,56,5760,54C5856,52,5952,56,6048,58C6144,60,6240,60,6336,60C6432,60,6528,60,6624,50C6720,40,6816,20,6864,10L6912,0L6912,120L6864,120C6816,120,6720,120,6624,120C6528,120,6432,120,6336,120C6240,120,6144,120,6048,120C5952,120,5856,120,5760,120C5664,120,5568,120,5472,120C5376,120,5280,120,5184,120C5088,120,4992,120,4896,120C4800,120,4704,120,4608,120C4512,120,4416,120,4320,120C4224,120,4128,120,4032,120C3936,120,3840,120,3744,120C3648,120,3552,120,3456,120C3360,120,3264,120,3168,120C3072,120,2976,120,2880,120C2784,120,2688,120,2592,120C2496,120,2400,120,2304,120C2208,120,2112,120,2016,120C1920,120,1824,120,1728,120C1632,120,1536,120,1440,120C1344,120,1248,120,1152,120C1056,120,960,120,864,120C768,120,672,120,576,120C480,120,384,120,288,120C192,120,96,120,48,120L0,120Z"/></svg>