<?xml version="1.0" standalone="no"?>
<svg xmlns:xlink="http://www.w3.org/1999/xlink" id="wave" style="transform:rotate(0deg); transition: 0.3s" viewBox="0 0 1440 170" version="1.1" xmlns="http://www.w3.org/2000/svg"><defs><linearGradient id="sw-gradient-0" x1="0" x2="0" y1="1" y2="0"><stop stop-color="rgba(243, 247, 255, 1)" offset="0%"/><stop stop-color="rgba(243, 247, 255, 1)" offset="100%"/></linearGradient></defs><path style="transform:translate(0, 0px); opacity:1" fill="url(#sw-gradient-0)" d="M0,17L34.3,36.8C68.6,57,137,96,206,104.8C274.3,113,343,91,411,76.5C480,62,549,57,617,70.8C685.7,85,754,119,823,121.8C891.4,125,960,96,1029,90.7C1097.1,85,1166,102,1234,113.3C1302.9,125,1371,130,1440,119C1508.6,108,1577,79,1646,68C1714.3,57,1783,62,1851,79.3C1920,96,1989,125,2057,136C2125.7,147,2194,142,2263,133.2C2331.4,125,2400,113,2469,90.7C2537.1,68,2606,34,2674,28.3C2742.9,23,2811,45,2880,62.3C2948.6,79,3017,91,3086,104.8C3154.3,119,3223,136,3291,138.8C3360,142,3429,130,3497,119C3565.7,108,3634,96,3703,85C3771.4,74,3840,62,3909,68C3977.1,74,4046,96,4114,96.3C4182.9,96,4251,74,4320,79.3C4388.6,85,4457,119,4526,124.7C4594.3,130,4663,108,4731,82.2C4800,57,4869,28,4903,14.2L4937.1,0L4937.1,170L4902.9,170C4868.6,170,4800,170,4731,170C4662.9,170,4594,170,4526,170C4457.1,170,4389,170,4320,170C4251.4,170,4183,170,4114,170C4045.7,170,3977,170,3909,170C3840,170,3771,170,3703,170C3634.3,170,3566,170,3497,170C3428.6,170,3360,170,3291,170C3222.9,170,3154,170,3086,170C3017.1,170,2949,170,2880,170C2811.4,170,2743,170,2674,170C2605.7,170,2537,170,2469,170C2400,170,2331,170,2263,170C2194.3,170,2126,170,2057,170C1988.6,170,1920,170,1851,170C1782.9,170,1714,170,1646,170C1577.1,170,1509,170,1440,170C1371.4,170,1303,170,1234,170C1165.7,170,1097,170,1029,170C960,170,891,170,823,170C754.3,170,686,170,617,170C548.6,170,480,170,411,170C342.9,170,274,170,206,170C137.1,170,69,170,34,170L0,170Z"/></svg>