<svg id="Layer_1" data-name="Layer 1" xmlns="http://www.w3.org/2000/svg" viewBox="0 0 32 32"><defs><style>.cls-1{fill:#52ba63;fill-rule:evenodd;}</style></defs><g id="WA_Logo" data-name="WA Logo"><path class="cls-1" d="M21.83,10.14A8.19,8.19,0,0,0,8.94,20L7.78,24.26l4.34-1.14a8.07,8.07,0,0,0,3.91,1h0a8.2,8.2,0,0,0,5.8-14ZM16,22.74h0a6.77,6.77,0,0,1-3.46-.95l-.25-.15-2.58.68.69-2.51-.16-.26A6.81,6.81,0,0,1,16,9.12a6.81,6.81,0,0,1,6.8,6.81A6.82,6.82,0,0,1,16,22.74Zm3.74-5.1c-.21-.1-1.21-.6-1.4-.67s-.32-.1-.46.11-.53.66-.65.8-.24.15-.44.05a5.43,5.43,0,0,1-1.65-1A6.22,6.22,0,0,1,14,15.5c-.12-.21,0-.32.09-.42a3.84,3.84,0,0,0,.31-.36,1.48,1.48,0,0,0,.21-.34.41.41,0,0,0,0-.36c0-.1-.46-1.11-.63-1.52s-.34-.34-.46-.35h-.4a.78.78,0,0,0-.54.26,2.3,2.3,0,0,0-.72,1.71,4,4,0,0,0,.84,2.11,9,9,0,0,0,3.49,3.09,10.82,10.82,0,0,0,1.17.43,2.66,2.66,0,0,0,1.29.08,2.07,2.07,0,0,0,1.38-1,1.72,1.72,0,0,0,.12-1C20.11,17.79,20,17.74,19.77,17.64Z"/></g></svg>